<?xml version="1.0" encoding="UTF-8" standalone="no"?>
<svg
   xmlns:dc="http://purl.org/dc/elements/1.1/"
   xmlns:cc="http://creativecommons.org/ns#"
   xmlns:rdf="http://www.w3.org/1999/02/22-rdf-syntax-ns#"
   xmlns:svg="http://www.w3.org/2000/svg"
   xmlns="http://www.w3.org/2000/svg"
   xmlns:sodipodi="http://sodipodi.sourceforge.net/DTD/sodipodi-0.dtd"
   xmlns:inkscape="http://www.inkscape.org/namespaces/inkscape"
   width="210mm"
   height="297mm"
   viewBox="0 0 210 297"
   version="1.1"
   id="svg8"
   inkscape:version="1.0.2 (1.0.2+r75+1)"
   sodipodi:docname="logo.svg">
  <defs
     id="defs2">
    <rect
       x="23.519046"
       y="97.046748"
       width="88.050391"
       height="40.557995"
       id="rect856" />
    <rect
       x="23.519047"
       y="97.046745"
       width="88.050392"
       height="40.557995"
       id="rect856-0" />
    <rect
       x="23.519047"
       y="97.046745"
       width="88.050392"
       height="40.557995"
       id="rect971" />
    <rect
       x="23.519047"
       y="97.046745"
       width="88.050392"
       height="40.557995"
       id="rect856-00" />
    <rect
       x="23.519047"
       y="97.046745"
       width="88.050392"
       height="40.557995"
       id="rect971-1" />
    <rect
       x="23.519047"
       y="97.046745"
       width="88.050392"
       height="40.557995"
       id="rect856-4" />
    <rect
       x="23.519047"
       y="97.046745"
       width="88.050392"
       height="40.557995"
       id="rect971-2" />
    <rect
       x="23.519047"
       y="97.046745"
       width="88.050392"
       height="40.557995"
       id="rect856-00-7" />
    <rect
       x="23.519047"
       y="97.046745"
       width="88.050392"
       height="40.557995"
       id="rect1224" />
    <rect
       x="23.519047"
       y="97.046745"
       width="88.050392"
       height="40.557995"
       id="rect856-00-7-8" />
    <rect
       x="23.519047"
       y="97.046745"
       width="88.050392"
       height="40.557995"
       id="rect1293" />
    <rect
       x="23.519047"
       y="97.046745"
       width="88.050392"
       height="40.557995"
       id="rect856-00-2" />
    <rect
       x="23.519047"
       y="97.046745"
       width="88.050392"
       height="40.557995"
       id="rect1296" />
    <rect
       x="23.519047"
       y="97.046745"
       width="88.050392"
       height="40.557995"
       id="rect856-00-7-8-9" />
    <rect
       x="23.519047"
       y="97.046745"
       width="88.050392"
       height="40.557995"
       id="rect1465" />
    <rect
       x="23.519047"
       y="97.046745"
       width="88.050392"
       height="40.557995"
       id="rect856-00-7-8-99" />
    <rect
       x="23.519047"
       y="97.046745"
       width="88.050392"
       height="40.557995"
       id="rect1465-7" />
    <rect
       x="23.519047"
       y="97.046745"
       width="88.050392"
       height="40.557995"
       id="rect856-00-7-8-5" />
    <rect
       x="23.519047"
       y="97.046745"
       width="88.050392"
       height="40.557995"
       id="rect1582" />
    <rect
       x="23.519047"
       y="97.046745"
       width="88.050392"
       height="40.557995"
       id="rect856-00-7-8-0" />
    <rect
       x="23.519047"
       y="97.046745"
       width="88.050392"
       height="40.557995"
       id="rect1582-5" />
    <rect
       x="23.519047"
       y="97.046745"
       width="88.050392"
       height="40.557995"
       id="rect856-00-7-8-90" />
    <rect
       x="23.519047"
       y="97.046745"
       width="88.050392"
       height="40.557995"
       id="rect1582-0" />
    <rect
       x="23.519047"
       y="97.046745"
       width="88.050392"
       height="40.557995"
       id="rect856-00-7-8-5-2" />
    <rect
       x="23.519047"
       y="97.046745"
       width="88.050392"
       height="40.557995"
       id="rect1739" />
  </defs>
  <sodipodi:namedview
     id="base"
     pagecolor="#ffffff"
     bordercolor="#666666"
     borderopacity="1.0"
     inkscape:pageopacity="0.0"
     inkscape:pageshadow="2"
     inkscape:zoom="0.49497475"
     inkscape:cx="322.86645"
     inkscape:cy="451.03801"
     inkscape:document-units="mm"
     inkscape:current-layer="layer2"
     inkscape:document-rotation="0"
     showgrid="false"
     inkscape:window-width="1920"
     inkscape:window-height="1018"
     inkscape:window-x="0"
     inkscape:window-y="34"
     inkscape:window-maximized="1" />
  <metadata
     id="metadata5">
    <rdf:RDF>
      <cc:Work
         rdf:about="">
        <dc:format>image/svg+xml</dc:format>
        <dc:type
           rdf:resource="http://purl.org/dc/dcmitype/StillImage" />
        <dc:title></dc:title>
      </cc:Work>
    </rdf:RDF>
  </metadata>
  <g
     inkscape:label="Layer 1"
     inkscape:groupmode="layer"
     id="layer1"
     sodipodi:insensitive="true"
     style="display:inline">
    <rect
       style="fill:#8dda5c;fill-opacity:1;stroke:none;stroke-width:0.349999"
       id="rect833"
       width="194.49232"
       height="66.541847"
       x="-880.46082"
       y="43.370285" />
    <rect
       style="fill:#8dda5c;fill-opacity:1;stroke:none;stroke-width:0.349999"
       id="rect833-5"
       width="194.49232"
       height="66.541847"
       x="-880.01587"
       y="115.6535" />
    <rect
       style="fill:#8dda5c;fill-opacity:1;stroke:none;stroke-width:0.349999"
       id="rect833-58"
       width="194.49232"
       height="66.541847"
       x="-553.3335"
       y="-26.499937" />
    <rect
       style="fill:#8dda5c;fill-opacity:1;stroke:none;stroke-width:0.349999"
       id="rect833-0"
       width="194.49232"
       height="66.541847"
       x="-880.46082"
       y="-28.463232" />
    <rect
       style="fill:#8dda5c;fill-opacity:1;stroke:none;stroke-width:0.349999"
       id="rect833-58-3"
       width="194.49232"
       height="66.541847"
       x="-553.61865"
       y="44.888351" />
    <text
       xml:space="preserve"
       id="text854-0-7"
       style="font-style:normal;font-variant:normal;font-weight:normal;font-stretch:normal;font-size:10.5833px;line-height:1;font-family:Keraleeyam;-inkscape-font-specification:Keraleeyam;letter-spacing:3.77825px;word-spacing:0px;white-space:pre;shape-inside:url(#rect856-00-7);fill:#ffffff;fill-opacity:1;stroke:none;"
       transform="translate(-562.7601,-23.635622)"><tspan
         x="23.519531"
         y="113.21953"><tspan
           style="font-style:normal;font-variant:normal;font-weight:normal;font-stretch:normal;font-size:25.4px;font-family:Keraleeyam;-inkscape-font-specification:Keraleeyam;fill:#ffffff">Medi</tspan></tspan></text>
    <ellipse
       style="fill:#456fc0;fill-opacity:1;stroke:none;stroke-width:0.297444"
       id="path866-00-7"
       cx="-458.59198"
       cy="74.280899"
       rx="22.037188"
       ry="22.228853" />
    <text
       xml:space="preserve"
       style="font-style:normal;font-variant:normal;font-weight:normal;font-stretch:normal;font-size:25.4px;line-height:1;font-family:Keraleeyam;-inkscape-font-specification:Keraleeyam;letter-spacing:3.77825px;word-spacing:0px;white-space:pre;inline-size:0;fill:#ffffff;fill-opacity:1;stroke:none;stroke-width:0.264583"
       x="131.7574"
       y="119.67501"
       id="text862-4-9"
       transform="translate(-567.93403,-30.785629)"><tspan
         id="tspan860-7-3"
         x="131.7574"
         y="119.67501"
         style="font-style:normal;font-variant:normal;font-weight:normal;font-stretch:normal;font-size:25.4px;font-family:Keraleeyam;-inkscape-font-specification:Keraleeyam;fill:#ffffff;stroke-width:0.264583">opper</tspan></text>
    <path
       style="fill:#ffffff;fill-opacity:1;stroke:none;stroke-width:0.349999"
       id="path880-5-2"
       d="m -479.06016,99.618433 c -0.18583,-1.14556 0.0227,-2.27523 0.24975,-3.39651 0.30711,-1.32404 0.86223,-2.55991 1.45146,-3.7768 0.54419,-1.14998 1.30315,-2.16492 2.12013,-3.13159 0.82766,-1.00929 1.76864,-1.91854 2.69609,-2.83468 0.99117,-0.95928 1.95108,-1.94834 2.86864,-2.97819 1.02808,-1.10847 1.99913,-2.26422 2.92248,-3.46083 0.97541,-1.24732 1.89136,-2.53753 2.80779,-3.82799 0.76978,-1.13734 1.53647,-2.27687 2.3061,-3.41469 0.91977,-1.41655 1.64264,-2.94457 2.44124,-4.429467 0.6575,-1.235944 1.31568,-2.470618 1.87466,-3.754789 0.48274,-1.176384 1.03702,-2.322928 1.51578,-3.500612 0.39201,-0.969504 0.64012,-1.985928 0.91132,-2.993212 0.26532,-1.006624 0.57039,-2.006708 0.92695,-2.985071 0.2016,-0.53602 0.37067,-1.07058 0.46044,-1.63632 0.074,-0.50422 0.19224,-1.00112 0.28293,-1.50322 0.0585,-0.51371 0.17035,-1.01435 0.26991,-1.52051 0.0628,-0.45861 0.0883,-0.92116 0.0921,-1.38372 0.004,-0.42465 0.006,-0.84932 0.008,-1.27399 0.0765,-0.33866 0.1248,-0.68147 0.15144,-1.02735 0.0208,-0.33325 0.0218,-0.66729 0.0233,-1.00106 0,0 -4.16507,2.11889 -4.16507,2.11889 v 0 c -0.003,0.32126 -0.007,0.64305 -0.0395,0.96295 -0.0406,0.35493 -0.118,0.70615 -0.1245,1.06414 0.003,0.41917 0.008,0.83845 -0.003,1.25755 -0.0189,0.44003 -0.0356,0.88249 -0.12865,1.31462 -0.0976,0.50106 -0.15653,1.00695 -0.24968,1.50873 -0.10995,0.50178 -0.21681,1.00467 -0.28801,1.51368 -0.11201,0.531163 -0.30516,1.03989 -0.45246,1.561917 -0.29523,0.992124 -0.58808,1.985088 -0.86625,2.982172 -0.27918,0.993977 -0.55165,1.992331 -0.94319,2.949595 -0.47093,1.166164 -0.97137,2.321065 -1.48565,3.468679 -0.57733,1.252644 -1.19453,2.485148 -1.83774,3.705338 -0.77943,1.49073 -1.51883,3.00771 -2.48088,4.39332 -0.78025,1.13981 -1.56083,2.27926 -2.33611,3.42241 -0.88552,1.29676 -1.79762,2.57339 -2.78783,3.7934 -0.93237,1.18725 -1.9212,2.32575 -2.9453,3.43489 -0.93593,1.02216 -1.91297,2.00338 -2.90762,2.96835 -0.92065,0.92232 -1.84617,1.84406 -2.65882,2.86547 -0.81801,1.0017 -1.56311,2.05742 -2.09427,3.24354 -0.57761,1.24362 -1.08961,2.51979 -1.37916,3.86522 -0.23271,1.18101 -0.38869,2.364897 -0.34882,3.572007 0,0 4.14239,-2.136267 4.14239,-2.136267 z" />
    <path
       style="fill:#ffffff;fill-opacity:1;stroke:none;stroke-width:0.386436"
       id="path906-3-0"
       d="m -481.54361,75.615673 c 0.10552,-0.0891 0.21216,-0.17618 0.31654,-0.26722 0.54157,-0.47234 0.26399,-0.26703 0.85237,-0.70391 0.15274,-0.11338 0.61676,-0.44185 0.46188,-0.33283 -3.81143,2.68262 -4.57222,3.18444 -2.98053,2.1223 1.0791,-0.69968 2.25624,-1.12466 3.42431,-1.54076 0.87737,-0.28255 1.77531,-0.46371 2.67242,-0.62495 0.77421,-0.14449 1.55177,-0.25382 2.33241,-0.32928 0.73909,-0.0616 1.47991,-0.0699 2.2204,-0.073 0.82741,6.5e-4 1.65396,-0.01 2.48023,0.049 0.96808,0.0453 1.92531,0.2263 2.88124,0.40522 0.89717,0.12298 1.78035,0.35184 2.66673,0.55491 1.07319,0.2625 2.15834,0.43316 3.23051,0.70223 0.8011,0.2279 1.61345,0.38585 2.4188,0.58853 0.76254,0.16653 1.52376,0.3445 2.28788,0.50059 0.53017,0.0996 1.0648,0.12948 1.5957,0.22343 0.66546,0.0858 1.33277,0.13598 1.99871,0.21854 0.83208,0.0834 1.66716,0.11677 2.50155,0.14633 0.72983,0.0127 1.45983,0.0208 2.18954,-0.002 0.66302,-0.0584 1.32303,-0.14862 1.9872,-0.18791 0.65283,-0.004 1.30071,-0.0219 1.9499,-0.10496 0.52607,-0.0728 1.05509,-0.094 1.58006,-0.17746 0.61372,-0.10873 1.22158,-0.25758 1.83834,-0.34032 0.42689,-0.0421 0.84072,-0.17721 1.2657,-0.23881 0.85934,-0.1348 1.70392,-0.38846 2.55143,-0.6056 0.62425,-0.15298 1.25031,-0.30823 1.86178,-0.52663 0.33318,-0.149 0.68632,-0.19254 1.02387,-0.31844 0.36057,-0.0909 0.68288,-0.31142 1.0377,-0.42426 0.30404,-0.15396 0.61759,-0.24912 0.92062,-0.40535 0.3944,-0.19604 0.7901,-0.38649 1.18965,-0.56682 0.44165,-0.24121 0.90346,-0.40536 1.34666,-0.64308 0.35347,-0.20842 0.18138,-0.10618 0.51634,-0.30642 0,0 3.60454,-3.55443 3.60454,-3.55443 v 0 c -0.31629,0.2525 -0.14811,0.13645 -0.5064,0.34414 -0.42218,0.27617 -0.84921,0.47745 -1.30779,0.63681 -0.38009,0.23286 -0.79382,0.35617 -1.17434,0.58734 -0.15496,0.0628 -0.20499,0.0744 -0.34573,0.16226 -0.0394,0.0246 -0.0721,0.0652 -0.11384,0.0831 -0.14499,0.0625 -0.31843,0.0413 -0.453,0.15185 -0.17113,0.10605 -0.34074,0.1341 -0.52114,0.21083 -0.31608,0.13448 -0.0395,0.0277 -0.33045,0.18755 -0.0488,0.0268 -0.10077,0.044 -0.15116,0.0661 -0.15281,0.0424 -0.29119,0.12712 -0.44051,0.17366 -0.20172,0.0629 -0.42219,0.0489 -0.61792,0.15013 -0.62469,0.24343 -1.25496,0.47141 -1.90015,0.6234 -0.81276,0.21671 -1.62691,0.43187 -2.44769,0.59639 -0.43575,0.0328 -0.86616,0.0886 -1.28438,0.25243 -0.6234,0.0602 -1.23931,0.17678 -1.85107,0.33646 -0.52553,0.0653 -1.0494,0.134 -1.57697,0.18092 -0.65064,0.0873 -1.29577,0.18748 -1.95292,0.15904 -0.66554,0.0149 -1.32966,0.0397 -1.98851,0.16889 -0.71955,0.0879 -1.44502,0.0217 -2.16737,0.0373 -0.82801,-0.004 -1.65707,-0.0149 -2.48232,-0.10532 -0.65292,-0.0781 -1.30197,-0.18421 -1.95735,-0.22818 -0.53623,-0.0859 -1.06775,-0.18376 -1.60918,-0.20842 -0.77513,-0.11277 -1.54057,-0.30013 -2.31254,-0.43891 -0.80882,-0.19966 -1.6121,-0.43294 -2.42768,-0.58986 -1.07842,-0.23211 -2.16199,-0.42836 -3.23415,-0.70188 -0.88818,-0.20079 -1.76621,-0.48348 -2.66764,-0.58378 -0.96539,-0.15368 -1.9247,-0.37334 -2.89837,-0.43882 -0.83064,-0.0839 -1.65954,-0.1141 -2.4935,-0.0868 -0.73706,-6.4e-4 -1.475,-0.0229 -2.21147,0.0173 -0.79509,0.0595 -1.58499,0.19053 -2.37325,0.32765 -0.93237,0.11898 -1.85299,0.35418 -2.76642,0.60749 -1.17237,0.38887 -2.35155,0.80721 -3.45762,1.42542 -2.26172,1.39181 -4.43335,2.99366 -6.52894,4.72512 0,0 4.32729,-2.06584 4.32729,-2.06584 z" />
    <path
       style="fill:#ffffff;fill-opacity:1;stroke:none;stroke-width:0.374057"
       id="path880-1-1-7"
       d="m -463.94454,108.08033 c -0.18583,-1.30845 0.0227,-2.59875 0.24974,-3.87948 0.30712,-1.51232 0.86224,-2.92392 1.45147,-4.313847 0.54419,-1.3135 1.30315,-2.47276 2.12012,-3.57689 0.82766,-1.15281 1.76866,-2.19135 2.69611,-3.23776 0.99117,-1.09569 1.9511,-2.22539 2.86865,-3.40168 1.02808,-1.26609 1.99913,-2.58619 2.92248,-3.95295 0.9754,-1.42468 1.89136,-2.89836 2.80778,-4.37232 0.76979,-1.29906 1.53647,-2.60063 2.3061,-3.90024 0.91977,-1.61798 1.64265,-3.36328 2.44123,-5.05934 0.6575,-1.41169 1.31568,-2.82193 1.87466,-4.288727 0.48273,-1.343651 1.03701,-2.653235 1.51576,-3.998366 0.39202,-1.107364 0.64013,-2.268328 0.91133,-3.418842 0.26531,-1.149774 0.57038,-2.292045 0.92694,-3.409529 0.2016,-0.612247 0.37067,-1.222804 0.46044,-1.868997 0.074,-0.57592 0.19224,-1.14348 0.28294,-1.71697 0.0585,-0.58676 0.17034,-1.1586 0.2699,-1.73672 0.0628,-0.52383 0.0883,-1.05216 0.0921,-1.58049 0.004,-0.48503 0.006,-0.97009 0.008,-1.45514 0.0765,-0.38682 0.12481,-0.77837 0.15144,-1.17343 0.0208,-0.38065 0.0218,-0.76218 0.0233,-1.14341 0,0 -4.16506,2.42019 -4.16506,2.42019 v 0 c -0.003,0.36693 -0.007,0.73448 -0.0395,1.09987 -0.0406,0.4054 -0.118,0.80657 -0.1245,1.21546 0.003,0.47877 0.008,0.95768 -0.003,1.43636 -0.0189,0.5026 -0.0356,1.00798 -0.12864,1.50156 -0.0976,0.57231 -0.15653,1.15014 -0.24968,1.723273 -0.10994,0.573127 -0.21681,1.147514 -0.28801,1.728911 -0.112,0.606697 -0.30515,1.187764 -0.45246,1.784008 -0.29523,1.133204 -0.58807,2.267358 -0.86624,3.406222 -0.27918,1.135324 -0.55165,2.275628 -0.94318,3.369012 -0.47094,1.332001 -0.97138,2.651125 -1.48565,3.961935 -0.57734,1.43077 -1.19454,2.83854 -1.83775,4.23224 -0.77943,1.70269 -1.51882,3.43539 -2.48088,5.01803 -0.78023,1.3019 -1.56081,2.60335 -2.3361,3.90907 -0.88552,1.48115 -1.79762,2.93931 -2.78783,4.3328 -0.93238,1.35608 -1.92121,2.65647 -2.94532,3.92332 -0.93593,1.16751 -1.91297,2.28825 -2.90762,3.39044 -0.92065,1.05347 -1.84618,2.10628 -2.65882,3.27293 -0.81802,1.14414 -1.56311,2.349977 -2.09427,3.704757 -0.57762,1.42045 -1.08962,2.8781 -1.37916,4.41483 -0.23271,1.34896 -0.38869,2.70119 -0.34883,4.07995 0,0 4.1424,-2.44004 4.1424,-2.44004 z" />
    <rect
       style="fill:#8dda5c;fill-opacity:1;stroke:none;stroke-width:0.349999"
       id="rect833-58-0"
       width="194.49232"
       height="66.541847"
       x="-554.42426"
       y="115.67793" />
    <rect
       style="fill:#8dda5c;fill-opacity:1;stroke:none;stroke-width:0.299179"
       id="rect833-58-3-7"
       width="183.50439"
       height="51.532009"
       x="-228.17038"
       y="185.8615" />
    <ellipse
       style="fill:#456983;fill-opacity:1;stroke:none;stroke-width:0.230349"
       id="path866-00-7-4"
       cx="-145.20464"
       cy="208.6239"
       rx="17.066261"
       ry="17.214693" />
    <text
       xml:space="preserve"
       style="font-style:normal;font-variant:normal;font-weight:normal;font-stretch:normal;font-size:25.4px;line-height:1;font-family:Keraleeyam;-inkscape-font-specification:Keraleeyam;letter-spacing:9.26042px;word-spacing:0px;white-space:pre;inline-size:0;fill:#ffffff;fill-opacity:1;stroke:none;stroke-width:0.264583"
       x="131.7574"
       y="119.67501"
       id="text862-4-9-6"
       transform="matrix(0.77443011,0,0,0.77443011,-228.00562,123.18689)"><tspan
         id="tspan860-7-3-1"
         x="131.7574"
         y="119.67501"
         style="font-style:normal;font-variant:normal;font-weight:normal;font-stretch:normal;font-size:25.4px;font-family:Keraleeyam;-inkscape-font-specification:Keraleeyam;fill:#ffffff;stroke-width:0.264583">opper</tspan></text>
    <text
       xml:space="preserve"
       id="text854-0-8"
       style="font-style:normal;font-variant:normal;font-weight:normal;font-stretch:normal;font-size:10.5833px;line-height:1;font-family:Keraleeyam;-inkscape-font-specification:Keraleeyam;letter-spacing:3.77825px;word-spacing:0px;white-space:pre;shape-inside:url(#rect856-00-2);fill:#ffffff;fill-opacity:1;stroke:none;"
       transform="translate(-563.56572,47.15378)"><tspan
         x="23.519531"
         y="113.21953"><tspan
           style="font-style:normal;font-variant:normal;font-weight:normal;font-stretch:normal;font-size:25.4px;font-family:Keraleeyam;-inkscape-font-specification:Keraleeyam;fill:#ffffff">Medi</tspan></tspan></text>
    <ellipse
       style="fill:#456983;fill-opacity:1;stroke:none;stroke-width:0.297444"
       id="path866-00-71"
       cx="-459.39758"
       cy="145.07045"
       rx="22.037188"
       ry="22.228853" />
    <text
       xml:space="preserve"
       style="font-style:normal;font-variant:normal;font-weight:normal;font-stretch:normal;font-size:25.4px;line-height:1;font-family:Keraleeyam;-inkscape-font-specification:Keraleeyam;letter-spacing:3.77825px;word-spacing:0px;white-space:pre;inline-size:0;fill:#ffffff;fill-opacity:1;stroke:none;stroke-width:0.264583"
       x="131.7574"
       y="119.67501"
       id="text862-4-0"
       transform="translate(-568.73965,40.00377)"><tspan
         id="tspan860-7-1"
         x="131.7574"
         y="119.67501"
         style="font-style:normal;font-variant:normal;font-weight:normal;font-stretch:normal;font-size:25.4px;font-family:Keraleeyam;-inkscape-font-specification:Keraleeyam;fill:#ffffff;stroke-width:0.264583">opper</tspan></text>
    <path
       style="fill:#ffffff;fill-opacity:1;stroke:none;stroke-width:0.349999"
       id="path1408"
       d="m -465.06212,120.66627 c -0.0564,2.35695 -0.33995,4.70743 -0.70019,7.03576 -0.27753,1.95615 -0.79205,3.87121 -1.34983,5.76372 -0.5661,1.88879 -1.43939,3.66205 -2.03877,5.54008 -0.42094,1.91347 -0.91899,3.80847 -1.68553,5.61387 -0.6401,1.68988 -1.62156,3.21777 -2.42954,4.827 -0.89221,1.83166 -2.02252,3.51292 -3.18803,5.17797 -1.09332,1.54859 -1.99691,3.22158 -3.0622,4.78828 -0.41119,0.60473 -1.36617,1.86969 -1.80468,2.45673 -1.14345,1.58187 -2.38104,3.08773 -3.60964,4.60281 0,0 6.65014,-2.84224 6.65014,-2.84224 v 0 c 1.19435,-1.52259 2.38932,-3.04419 3.53893,-4.60119 1.73718,-2.37326 3.27795,-4.87022 4.93914,-7.29546 1.1927,-1.69239 2.2947,-3.43576 3.21023,-5.29652 0.84817,-1.60278 1.78107,-3.17089 2.38957,-4.88757 0.6849,-1.84786 1.19329,-3.7415 1.67005,-5.65203 0.64999,-1.8686 1.47687,-3.6721 2.03714,-5.57145 0.54282,-1.90676 0.99899,-3.84221 1.22499,-5.81485 0.32284,-2.38185 0.5694,-4.77236 0.86087,-7.15805 0,0 -6.65265,3.31314 -6.65265,3.31314 z" />
    <path
       style="fill:#ffffff;fill-opacity:1;stroke:none;stroke-width:0.349999"
       id="path1410"
       d="m -449.70317,124.27953 c -0.28849,0.78153 -0.27543,0.77062 -0.6615,1.67226 -0.62676,1.46375 -0.63028,1.34115 -1.23931,2.94497 -0.72942,1.92087 -0.79819,2.25647 -1.43084,4.28628 -1.32292,4.64831 -2.27993,9.37914 -2.98793,14.15616 -0.27318,2.22171 -0.57069,4.4889 -0.19945,6.71944 0.19611,1.17835 0.39832,1.66806 0.76119,2.80042 0.91435,2.46112 1.97662,4.88216 3.28752,7.1592 1.71903,2.35786 3.89521,4.31418 6.21041,6.06737 2.66083,1.93761 5.79168,3.03567 8.89474,4.03859 3.71201,1.29429 7.5626,2.05487 11.43372,2.67529 4.40904,0.66334 8.85942,0.99413 13.31506,1.07386 2.74514,0.0375 5.4936,-0.13159 8.2022,-0.58246 1.00293,-0.19672 1.98294,-0.48015 2.94223,-0.82924 0,0 5.79991,-4.583 5.79991,-4.583 v 0 c -0.92814,0.45824 -1.91284,0.74274 -2.91292,1.00625 -2.73668,0.59174 -5.53568,0.8213 -8.33317,0.85487 -4.44852,0.0134 -8.90021,-0.28834 -13.30127,-0.94865 -3.80737,-0.6524 -7.61491,-1.38419 -11.27078,-2.66239 -3.02649,-0.96639 -6.0856,-2.02514 -8.69448,-3.88637 -2.25786,-1.67079 -4.39788,-3.52727 -6.00268,-5.85795 -1.32298,-2.20529 -2.37012,-4.57707 -3.26424,-6.98548 -0.37151,-1.19471 -0.49406,-1.43827 -0.69229,-2.67774 -0.34345,-2.14749 -0.13369,-4.33209 0.11381,-6.47665 0.63144,-4.7402 1.58875,-9.43174 2.97531,-14.01268 1.07467,-3.11121 2.32965,-6.14052 3.84834,-9.06406 0,0 -6.79358,3.11171 -6.79358,3.11171 z" />
    <path
       style="fill:#ffffff;fill-opacity:1;stroke:none;stroke-width:0.349999"
       id="path1412"
       d="m -491.56184,145.8111 c 2.17965,-1.04134 4.36741,-2.07268 6.60221,-2.99101 2.25048,-0.91663 4.61704,-1.27318 7.02089,-1.46898 2.97741,-0.17669 5.962,-0.16871 8.9433,-0.13873 2.36823,0.0174 4.73384,-0.0299 7.09903,0.10845 2.22663,0.11356 4.44279,0.37634 6.64577,0.71263 1.76153,0.25148 3.49977,0.63498 5.24949,0.95419 1.18164,0.21988 2.36575,0.41362 3.51537,0.77036 0.87252,0.27492 1.76928,0.45314 2.6345,0.75228 0.79758,0.27711 1.58647,0.57421 2.37225,0.88243 0.49034,0.19696 0.96511,0.42853 1.43975,0.65976 0.423,0.16999 0.80468,0.43085 1.18382,0.68175 0.29483,0.19004 0.5639,0.41197 0.81551,0.65553 0.12474,0.12291 0.24612,0.24916 0.36807,0.37481 0,0 6.39947,-3.94459 6.39947,-3.94459 v 0 c -0.12627,-0.10703 -0.22197,-0.2382 -0.35307,-0.33993 -0.27651,-0.3069 -0.59383,-0.56351 -0.92209,-0.81257 -0.42688,-0.24799 -0.82674,-0.53653 -1.25631,-0.77797 -0.51481,-0.17532 -0.98183,-0.47235 -1.4863,-0.67763 -0.80912,-0.25761 -1.59344,-0.59173 -2.39341,-0.87604 -0.87595,-0.3034 -1.7577,-0.56252 -2.66365,-0.76221 -1.18217,-0.36483 -2.38098,-0.6329 -3.60719,-0.8076 -1.77279,-0.35179 -3.5685,-0.59917 -5.34808,-0.9142 -2.21813,-0.35767 -4.45241,-0.65057 -6.69732,-0.76567 -2.37715,-0.12335 -4.75474,-0.16671 -7.13529,-0.13175 -3.00769,0.0307 -6.01606,0.0423 -9.0226,0.13854 -2.45663,0.12107 -4.7951,0.34886 -7.11125,1.25089 -2.18058,0.85639 -4.29658,1.87313 -6.43243,2.8316 0,0 -5.86044,4.63566 -5.86044,4.63566 z" />
    <path
       style="fill:#ffffff;fill-opacity:1;stroke:none;stroke-width:0.271049"
       id="path1418"
       d="m -156.94737,223.96174 c 0.1561,-0.0993 0.32032,-0.18691 0.4683,-0.29797 0.24889,-0.18676 1.32605,-1.11789 1.49649,-1.26872 0.68748,-0.60836 1.2824,-1.1304 1.87399,-1.84206 0.31077,-0.37385 0.57643,-0.78301 0.86465,-1.17451 0.24721,-0.48513 0.52355,-0.95647 0.74159,-1.45538 0.57027,-1.30483 0.89758,-2.49769 1.30607,-3.86717 0.6447,-2.16139 1.27349,-4.32493 1.94862,-6.47718 0.65755,-2.21969 1.56714,-4.38328 1.9487,-6.67653 0.11347,-0.52783 -0.0338,-0.95675 -0.26529,-1.41624 -0.0213,-0.0491 -0.0426,-0.0981 -0.0639,-0.1472 0,0 -5.06128,2.85199 -5.06128,2.85199 v 0 c 0.0258,0.0565 0.0514,0.11307 0.0772,0.16959 0.17379,0.34989 0.2375,0.6731 0.17086,1.07131 -0.25261,2.19726 -1.00265,4.29784 -1.60249,6.41528 -0.36769,1.25164 -0.88106,3.00735 -1.25358,4.2403 -0.61772,2.04453 -1.20188,4.14009 -2.16437,6.05777 -0.24176,0.48167 -0.5447,0.93012 -0.81705,1.39518 -0.30235,0.37431 -0.58477,0.76565 -0.90706,1.12294 -1.19045,1.31971 -2.63391,2.44699 -4.14292,3.37487 0,0 5.38146,-2.07627 5.38146,-2.07627 z" />
    <text
       xml:space="preserve"
       id="text854-0-7-1"
       style="font-style:normal;font-variant:normal;font-weight:normal;font-stretch:normal;font-size:10.5833px;line-height:1;font-family:Keraleeyam;-inkscape-font-specification:Keraleeyam;letter-spacing:9.26042px;word-spacing:0px;white-space:pre;shape-inside:url(#rect856-00-7-8);fill:#ffffff;fill-opacity:1;stroke:none;"
       transform="matrix(0.77443011,0,0,0.77443011,-236.20015,128.1862)"><tspan
         x="23.519531"
         y="113.21953"><tspan
           style="font-style:normal;font-variant:normal;font-weight:normal;font-stretch:normal;font-size:25.4px;font-family:Keraleeyam;-inkscape-font-specification:Keraleeyam;fill:#ffffff">Medi</tspan></tspan></text>
    <path
       style="fill:#ffffff;fill-opacity:1;stroke:none;stroke-width:0.271049"
       id="path1422"
       d="m -135.51791,225.8798 c -1.20503,-1.00509 -2.11293,-2.3155 -3.00292,-3.59519 -0.73994,-0.9661 -0.89341,-2.09294 -0.98602,-3.2677 -0.096,-2.35866 0.43459,-4.69924 0.85959,-7.00688 0.49406,-2.72706 0.91864,-5.46622 1.52601,-8.17113 0.31409,-1.70052 0.76195,-3.37052 1.22145,-5.03569 0.26548,-0.8413 0.6077,-1.63771 0.99557,-2.42568 0.34936,-0.53246 0.58111,-1.12164 0.85049,-1.69379 0.31094,-0.70779 0.84227,-1.27123 1.19192,-1.95715 0.3143,-0.47886 0.51156,-1.04887 0.88117,-1.49124 0.13327,-0.15948 0.29206,-0.29603 0.43031,-0.45121 2.9135,-1.86695 -6.40206,3.63433 -3.88278,2.2328 1.92417,-1.00445 3.74616,-2.18179 5.65274,-3.22824 1.57685,-0.86546 -3.11591,1.79809 -4.67259,2.69935 -0.16966,0.0982 0.34542,-0.18585 0.52206,-0.27091 0.0854,-0.0327 0.17063,-0.0655 0.25595,-0.0983 0,0 4.52327,-3.60499 4.52327,-3.60499 v 0 c -0.0781,0.0453 -0.15616,0.0907 -0.23425,0.13601 -2.05014,0.62934 -4.55473,2.47656 -5.78619,3.21126 -1.5491,0.92419 3.132,-1.79054 4.69382,-2.69306 0.009,-0.005 -0.42457,0.21014 -0.43251,0.21408 -2.08269,1.04748 -4.43332,1.87349 -5.95983,3.65617 -0.49975,0.61638 -0.82511,1.34594 -1.23184,2.02356 -0.42561,0.66089 -0.91187,1.28687 -1.20612,2.02382 -0.24998,0.57473 -0.56546,1.11512 -0.84524,1.67548 -0.37721,0.79569 -0.62567,1.64008 -0.86862,2.485 -0.43287,1.65705 -0.79736,3.32874 -1.10645,5.0136 -0.53999,2.69699 -0.89648,5.42504 -1.40813,8.12751 -0.46431,2.38682 -1.09289,4.80455 -1.01244,7.25062 0.10663,1.27794 0.30565,2.50684 1.14958,3.52878 0.96427,1.29912 1.94158,2.59232 3.01541,3.80375 0,0 4.86659,-3.09067 4.86659,-3.09067 z" />
    <text
       xml:space="preserve"
       style="font-style:normal;font-weight:normal;font-size:10.5833px;line-height:1;font-family:sans-serif;letter-spacing:0px;word-spacing:0px;fill:#000000;fill-opacity:1;stroke:none;stroke-width:0.264583"
       x="-855.69611"
       y="-91.423203"
       id="text1428"><tspan
         sodipodi:role="line"
         id="tspan1426"
         x="-855.69611"
         y="-91.423203"
         style="font-size:22.5778px;stroke-width:0.264583">iteration 1</tspan></text>
    <text
       xml:space="preserve"
       style="font-style:normal;font-weight:normal;font-size:10.5833px;line-height:1;font-family:sans-serif;letter-spacing:0px;word-spacing:0px;fill:#000000;fill-opacity:1;stroke:none;stroke-width:0.264583"
       x="-516.42181"
       y="-91.007195"
       id="text1428-7"><tspan
         sodipodi:role="line"
         id="tspan1426-6"
         x="-516.42181"
         y="-91.007195"
         style="font-size:22.5778px;stroke-width:0.264583">iteration 2</tspan><tspan
         sodipodi:role="line"
         x="-516.42181"
         y="-77.542404"
         style="font-size:22.5778px;stroke-width:0.264583"
         id="tspan1454" /></text>
    <rect
       style="fill:#8dda5c;fill-opacity:1;stroke:none;stroke-width:0.349999"
       id="rect833-58-3-7-3"
       width="194.49232"
       height="66.541847"
       x="-283.60428"
       y="66.29229" />
    <text
       xml:space="preserve"
       id="text854-0-7-1-3"
       style="font-style:normal;font-variant:normal;font-weight:normal;font-stretch:normal;font-size:10.5833px;line-height:1;font-family:Keraleeyam;-inkscape-font-specification:Keraleeyam;letter-spacing:3.77825px;word-spacing:0px;white-space:pre;shape-inside:url(#rect856-00-7-8-9);fill:#ffffff;fill-opacity:1;stroke:none;"
       transform="translate(-292.74576,-2.2319183)"><tspan
         x="23.519531"
         y="113.21953"><tspan
           style="font-style:normal;font-variant:normal;font-weight:normal;font-stretch:normal;font-size:25.4px;font-family:Keraleeyam;-inkscape-font-specification:Keraleeyam;fill:#ffffff">Medi</tspan></tspan></text>
    <ellipse
       style="fill:#456983;fill-opacity:1;stroke:none;stroke-width:0.297444"
       id="path866-00-7-4-6"
       cx="-188.57764"
       cy="95.684746"
       rx="22.037188"
       ry="22.228853" />
    <text
       xml:space="preserve"
       style="font-style:normal;font-variant:normal;font-weight:normal;font-stretch:normal;font-size:25.4px;line-height:1;font-family:Keraleeyam;-inkscape-font-specification:Keraleeyam;letter-spacing:3.77825px;word-spacing:0px;white-space:pre;inline-size:0;fill:#ffffff;fill-opacity:1;stroke:none;stroke-width:0.264583"
       x="131.7574"
       y="119.67501"
       id="text862-4-9-6-4"
       transform="translate(-297.91969,-9.3819283)"><tspan
         id="tspan860-7-3-1-9"
         x="131.7574"
         y="119.67501"
         style="font-style:normal;font-variant:normal;font-weight:normal;font-stretch:normal;font-size:25.4px;font-family:Keraleeyam;-inkscape-font-specification:Keraleeyam;fill:#ffffff;stroke-width:0.264583">opper</tspan></text>
    <path
       style="fill:#ffffff;fill-opacity:1;stroke:none;stroke-width:0.349999"
       id="path1418-8"
       d="m -203.74069,115.49007 c 0.20157,-0.12824 0.41363,-0.24135 0.60472,-0.38476 0.32137,-0.24116 1.71228,-1.44351 1.93238,-1.63827 0.88771,-0.78555 1.65591,-1.45965 2.41981,-2.37859 0.4013,-0.48275 0.74434,-1.01108 1.11652,-1.51662 0.31919,-0.62643 0.67603,-1.23507 0.95759,-1.87929 0.73637,-1.68489 1.15901,-3.22519 1.68648,-4.99357 0.83249,-2.790943 1.64443,-5.584663 2.51621,-8.363803 0.84907,-2.86622 2.0236,-5.66 2.51629,-8.62122 0.14653,-0.68157 -0.0437,-1.23543 -0.34255,-1.82875 -0.0275,-0.0634 -0.055,-0.12672 -0.0825,-0.19007 0,0 -6.53548,3.6827 -6.53548,3.6827 v 0 c 0.0332,0.073 0.0665,0.14599 0.0997,0.21898 0.22442,0.4518 0.30667,0.86916 0.22064,1.38335 -0.32621,2.83726 -1.29471,5.54968 -2.06927,8.28388 -0.47478,1.6162 -1.13768,3.883303 -1.6187,5.475383 -0.79765,2.64004 -1.55196,5.34597 -2.7948,7.82222 -0.31217,0.62197 -0.70335,1.20104 -1.05502,1.80156 -0.39043,0.48334 -0.75511,0.98867 -1.17127,1.45002 -1.5372,1.7041 -3.40109,3.15973 -5.34963,4.35787 0,0 6.94892,-2.68102 6.94892,-2.68102 z" />
    <path
       style="fill:#ffffff;fill-opacity:1;stroke:none;stroke-width:0.349999"
       id="path1422-4"
       d="m -176.06941,117.96681 c -1.55602,-1.29786 -2.72836,-2.98995 -3.87759,-4.64238 -0.95546,-1.2475 -1.15363,-2.70255 -1.27322,-4.21948 -0.1239,-3.04568 0.56117,-6.068 1.10997,-9.04779 0.63797,-3.521383 1.18621,-7.058383 1.97049,-10.551153 0.40557,-2.19584 0.98389,-4.35226 1.57723,-6.50245 0.34281,-1.08635 0.7847,-2.11472 1.28554,-3.13221 0.45113,-0.68755 0.75037,-1.44835 1.09823,-2.18714 0.4015,-0.91395 1.08759,-1.64151 1.53909,-2.52722 0.40583,-0.61834 0.66055,-1.35438 1.13783,-1.92559 0.17208,-0.20594 0.37712,-0.38226 0.55564,-0.58265 3.76212,-2.41074 -8.2668,4.69291 -5.01373,2.88316 2.48463,-1.29702 4.83732,-2.81728 7.29923,-4.16853 2.03614,-1.11755 -4.02349,2.32182 -6.03358,3.48559 -0.21908,0.12685 0.44603,-0.23998 0.67412,-0.34981 0.11017,-0.0423 0.22033,-0.0846 0.3305,-0.12689 0,0 5.84077,-4.65502 5.84077,-4.65502 v 0 c -0.10083,0.0585 -0.20165,0.11709 -0.30248,0.17563 -2.64729,0.81264 -5.88139,3.1979 -7.47155,4.1466 -2.0003,1.19339 4.04427,-2.31208 6.06101,-3.47747 0.0121,-0.007 -0.54824,0.27135 -0.55849,0.27644 -2.68932,1.35258 -5.72463,2.41918 -7.69577,4.72111 -0.64531,0.79592 -1.06544,1.73797 -1.59064,2.61296 -0.54958,0.85339 -1.17746,1.6617 -1.55742,2.6133 -0.32281,0.74214 -0.73017,1.43993 -1.09144,2.1635 -0.48708,1.02746 -0.80791,2.11779 -1.12162,3.20881 -0.55896,2.1397 -1.02962,4.29832 -1.42873,6.47393 -0.69728,3.48255 -1.15761,7.00521 -1.81829,10.494823 -0.59955,3.08204 -1.41122,6.20399 -1.30733,9.36253 0.13768,1.65017 0.39468,3.23701 1.48441,4.55662 1.24514,1.67751 2.50713,3.34738 3.89372,4.91167 0,0 6.2841,-3.99089 6.2841,-3.99089 z" />
    <rect
       style="fill:#8dda5c;fill-opacity:1;stroke:none;stroke-width:0.349999"
       id="rect833-58-3-7-8"
       width="194.49232"
       height="66.541847"
       x="-283.87912"
       y="-24.20422" />
    <text
       xml:space="preserve"
       id="text854-0-7-1-0"
       style="font-style:normal;font-variant:normal;font-weight:normal;font-stretch:normal;font-size:10.5833px;line-height:1;font-family:Keraleeyam;-inkscape-font-specification:Keraleeyam;letter-spacing:3.77825px;word-spacing:0px;white-space:pre;shape-inside:url(#rect856-00-7-8-99);fill:#ffffff;fill-opacity:1;stroke:none;"
       transform="translate(-293.0206,-92.728427)"><tspan
         x="23.519531"
         y="113.21953"><tspan
           style="font-style:normal;font-variant:normal;font-weight:normal;font-stretch:normal;font-size:25.4px;font-family:Keraleeyam;-inkscape-font-specification:Keraleeyam;fill:#ffffff">Medi</tspan></tspan></text>
    <ellipse
       style="fill:#456983;fill-opacity:1;stroke:none;stroke-width:0.297444"
       id="path866-00-7-4-1"
       cx="-188.85246"
       cy="5.1882443"
       rx="22.037188"
       ry="22.228853" />
    <text
       xml:space="preserve"
       style="font-style:normal;font-variant:normal;font-weight:normal;font-stretch:normal;font-size:25.4px;line-height:1;font-family:Keraleeyam;-inkscape-font-specification:Keraleeyam;letter-spacing:3.77825px;word-spacing:0px;white-space:pre;inline-size:0;fill:#ffffff;fill-opacity:1;stroke:none;stroke-width:0.264583"
       x="131.7574"
       y="119.67501"
       id="text862-4-9-6-43"
       transform="translate(-298.19453,-99.878437)"><tspan
         id="tspan860-7-3-1-5"
         x="131.7574"
         y="119.67501"
         style="font-style:normal;font-variant:normal;font-weight:normal;font-stretch:normal;font-size:25.4px;font-family:Keraleeyam;-inkscape-font-specification:Keraleeyam;fill:#ffffff;stroke-width:0.264583">opper</tspan></text>
    <path
       style="fill:#ffffff;fill-opacity:1;stroke:none;stroke-width:0.349999"
       id="path1418-9"
       d="m -204.01553,24.993552 c 0.20157,-0.12824 0.41363,-0.24135 0.60471,-0.38476 0.32137,-0.24116 1.71229,-1.44351 1.93238,-1.63827 0.88772,-0.78555 1.65592,-1.45965 2.41982,-2.37859 0.40129,-0.48275 0.74434,-1.01108 1.11651,-1.51662 0.3192,-0.62643 0.67603,-1.23507 0.95759,-1.87929 0.73638,-1.68489 1.15901,-3.22519 1.68649,-4.99357 0.83249,-2.7909403 1.64443,-5.5846603 2.5162,-8.3638003 0.84908,-2.86622001 2.0236,-5.66 2.51629,-8.62122 0.14653,-0.68157 -0.0437,-1.23543 -0.34255,-1.82875 -0.0275,-0.0634 -0.055,-0.12672 -0.0825,-0.19007 0,0 -6.53547,3.6827 -6.53547,3.6827 v 0 c 0.0332,0.073 0.0665,0.14599 0.0997,0.21898 0.22442,0.4518 0.30667,0.86916 0.22063,1.38335 -0.3262,2.83726 -1.2947,5.54968 -2.06926,8.28388 -0.47479,1.6162 -1.13768,3.8833003 -1.6187,5.4753803 -0.79765,2.64004 -1.55197,5.34597 -2.7948,7.82222 -0.31217,0.62197 -0.70335,1.20104 -1.05503,1.80156 -0.39042,0.48334 -0.7551,0.98867 -1.17127,1.45002 -1.5372,1.7041 -3.40109,3.15973 -5.34963,4.35787 0,0 6.94892,-2.68102 6.94892,-2.68102 z" />
    <path
       style="fill:#ffffff;fill-opacity:1;stroke:none;stroke-width:0.349999"
       id="path1422-43"
       d="m -176.34425,27.470292 c -1.55603,-1.29786 -2.72837,-2.98995 -3.87759,-4.64238 -0.95547,-1.2475 -1.15364,-2.70255 -1.27323,-4.21948 -0.1239,-3.04568 0.56117,-6.068 1.10997,-9.0477903 0.63797,-3.52138 1.18622,-7.05838 1.97049,-10.55115001 0.40557,-2.19583999 0.9839,-4.35225999 1.57723,-6.50244999 0.34282,-1.08635 0.78471,-2.11472 1.28554,-3.1322097 0.45113,-0.68755 0.75037,-1.44835 1.09823,-2.18714 0.4015,-0.91395 1.08759,-1.64151 1.53909,-2.52722 0.40583,-0.61834 0.66055,-1.35438 1.13783,-1.92559 0.17208,-0.20594 0.37712,-0.38226 0.55564,-0.58265 3.76212,-2.41074 -8.2668,4.69291 -5.01373,2.88316 2.48464,-1.29702 4.83732,-2.81728 7.29923,-4.16853 2.03614,-1.11755 -4.02348,2.32182 -6.03358,3.48559 -0.21908,0.12685 0.44603,-0.23998 0.67412,-0.34981 0.11017,-0.0423 0.22033,-0.0846 0.33051,-0.12689 0,0 5.84076,-4.65502 5.84076,-4.65502 v 0 c -0.10083,0.0585 -0.20165,0.11709 -0.30248,0.17563 -2.64729,0.81264 -5.88138,3.1979 -7.47155,4.1466 -2.00029,1.19339 4.04427,-2.31208 6.06101,-3.47747 0.0121,-0.007 -0.54824,0.27135 -0.55849,0.27644 -2.68932,1.35258 -5.72463,2.41918 -7.69576,4.72111 -0.64531,0.79592 -1.06545,1.73797 -1.59065,2.61296 -0.54957,0.85339 -1.17745,1.6617 -1.55741,2.6132997 -0.32281,0.74214 -0.73017,1.43993 -1.09145,2.1635 -0.48708,1.02746 -0.80791,2.11779 -1.12162,3.20881 -0.55896,2.1397 -1.02961,4.29831999 -1.42872,6.47393 -0.69729,3.48255 -1.15762,7.00521 -1.8183,10.4948203 -0.59955,3.08204 -1.41122,6.20399 -1.30733,9.36253 0.13768,1.65017 0.39468,3.23701 1.48442,4.55662 1.24513,1.67751 2.50712,3.34738 3.89371,4.91167 0,0 6.28411,-3.99089 6.28411,-3.99089 z" />
    <path
       style="fill:#ffffff;fill-opacity:1;stroke:none;stroke-width:0.349999"
       id="path1424-8"
       d="m -212.02359,11.895782 c 1.06031,-1.02068 2.26267,-1.85254 3.53267,-2.5876303 -10.44951,5.8428703 -5.90614,3.2377403 -3.34495,2.3315403 0.76068,-0.26913 0.83517,-0.27437 1.61823,-0.48974 1.72936,-0.44275 3.51529,-0.52369 5.29016,-0.59025 2.22742,-0.0464 4.4554,-0.0457 6.68318,-0.0412 2.38057,0.0149 4.74128,0.33596 7.11101,0.51824 1.96926,0.0993 3.92211,0.37822 5.8878,0.52033 1.49335,0.0925 2.98951,0.12833 4.48542,0.14293 1.56737,0.0656 3.12025,-0.0916 4.6632,-0.35126 1.77613,-0.2521 3.47293,-0.84868 5.16137,-1.4314803 2.76205,-1.22751 5.43377,-3.06433 7.92449,-4.52554 0.42312,-0.24823 0.81973,-0.52556 1.2505,-0.76055 0.48575,-0.32777 0.99812,-0.61288 1.46082,-0.97179 0,0 -6.9374,2.73176 -6.9374,2.73176 v 0 c -0.48938,0.30479 -0.96632,0.62937 -1.46754,0.91509 -1.50519,0.96853 0.7925,-0.50874 -0.79103,0.50521 -0.14178,0.0908 -0.57047,0.35744 -0.42419,0.27412 10.50894,-5.98616 6.99085,-4.10682 4.79457,-2.71369 -1.65875,0.65873 -3.36923,1.27558 -5.13078,1.57632 -1.49402,0.27322 -2.99952,0.48006 -4.52291,0.41117 -1.50053,-0.001 -3.00185,5.3e-4 -4.50088,-0.077 -1.98964,-0.11771 -3.96896,-0.3533 -5.95909,-0.45972 -2.3789,-0.18096 -4.74675,-0.49043 -7.1327,-0.56955 -2.21962,-0.002 -4.43928,-0.0231 -6.65882,-2.7e-4 -1.79341,0.0223 -3.59749,0.0687 -5.35942,0.43926 -4.05279,0.93009 -7.38417,2.96649 -10.96116,5.2686703 -1.2754,0.81935 -2.48397,1.72854 -3.56913,2.79182 0,0 6.89658,-2.85665 6.89658,-2.85665 z" />
    <path
       style="fill:#ffffff;fill-opacity:1;stroke:none;stroke-width:0.349999"
       id="path1563"
       d="m -217.91423,96.702827 c 2.0462,0.78824 4.0932,1.56135 6.18335,2.22753 3.01248,1.02081 6.06369,1.904963 9.19895,2.448273 3.53235,0.54927 7.11886,0.54883 10.68429,0.51628 5.79289,-0.0721 11.42992,-1.43908 17.01075,-2.857953 2.54008,-0.60767 5.0405,-1.35327 7.51637,-2.18036 0,0 5.68003,-4.42818 5.68003,-4.42818 v 0 c -2.57015,0.94927 -5.16268,1.83381 -7.82541,2.49368 -5.46531,1.45071 -10.9971,2.80802 -16.68984,2.82604 -3.51208,0.0598 -7.03707,-0.0244 -10.52476,-0.47404 -3.106,-0.5031 -6.14773,-1.30651 -9.10631,-2.38357 -2.02061,-0.6682 -4.01904,-1.41781 -5.9398,-2.33754 0,0 -6.18762,4.14984 -6.18762,4.14984 z" />
    <path
       style="fill:#ffffff;fill-opacity:1;stroke:none;stroke-width:0.271049"
       id="path1571"
       d="m -152.15508,215.43572 c 1.04539,-1.39436 2.44868,-2.45419 3.87161,-3.43392 0.23941,-0.15974 0.47283,-0.32885 0.71823,-0.47923 0.21633,-0.13257 0.88381,-0.4987 0.66581,-0.36889 -1.38688,0.82582 -2.81556,1.58323 -4.17268,2.45709 -0.24275,0.1563 0.53796,-0.21161 0.81446,-0.29472 0.81639,-0.24535 1.2928,-0.30548 2.14016,-0.45875 1.92344,-0.29639 3.86978,-0.37753 5.8129,-0.40295 0.56383,-0.007 1.12766,-0.007 1.69152,-0.004 0,0 4.62734,-3.3627 4.62734,-3.3627 v 0 c -0.57911,0.004 -1.1583,0.005 -1.73726,0.0213 -1.98673,0.0682 -3.97597,0.15872 -5.94952,0.40811 -0.58875,0.0852 -2.46228,0.30364 -2.97228,0.56864 -2.32265,1.20684 -4.69506,2.45671 -6.85194,3.97508 -1.45122,1.07306 -2.86323,2.22515 -3.96323,3.67064 0,0 5.30488,-2.2956 5.30488,-2.2956 z" />
    <rect
       style="fill:#8dda5c;fill-opacity:1;stroke:none;stroke-width:0.534234"
       id="rect833-58-3-7-5"
       width="365.25165"
       height="82.552971"
       x="-48.124512"
       y="59.654373" />
  </g>
  <g
     inkscape:groupmode="layer"
     id="layer2"
     inkscape:label="Layer 2">
    <text
       xml:space="preserve"
       id="text854"
       style="font-style:normal;font-variant:normal;font-weight:normal;font-stretch:normal;font-size:10.5833px;line-height:1;font-family:'Tibetan Machine Uni';-inkscape-font-specification:'Tibetan Machine Uni';letter-spacing:0px;word-spacing:0px;white-space:pre;shape-inside:url(#rect856);fill:#ffffff;fill-opacity:1;stroke:none;"
       transform="translate(-895.51284,-25.153601)"><tspan
         x="23.519531"
         y="112.525"><tspan
           style="font-style:normal;font-variant:normal;font-weight:normal;font-stretch:normal;font-size:25.4px;font-family:'Tibetan Machine Uni';-inkscape-font-specification:'Tibetan Machine Uni';fill:#ffffff">Medi</tspan></tspan></text>
    <ellipse
       style="fill:#456983;fill-opacity:1;stroke:none;stroke-width:0.297444"
       id="path866"
       cx="-785.4342"
       cy="72.762779"
       rx="22.037188"
       ry="22.228853" />
    <text
       xml:space="preserve"
       style="font-style:normal;font-variant:normal;font-weight:normal;font-stretch:normal;font-size:25.4px;line-height:1;font-family:'Tibetan Machine Uni';-inkscape-font-specification:'Tibetan Machine Uni';letter-spacing:0px;word-spacing:0px;white-space:pre;inline-size:0;fill:#ffffff;fill-opacity:1;stroke:none;stroke-width:0.264583"
       x="131.7574"
       y="119.67501"
       id="text862"
       transform="translate(-894.77623,-32.303611)"><tspan
         id="tspan860"
         x="131.7574"
         y="119.67501"
         style="font-style:normal;font-variant:normal;font-weight:normal;font-stretch:normal;font-size:25.4px;font-family:'Tibetan Machine Uni';-inkscape-font-specification:'Tibetan Machine Uni';fill:#ffffff;stroke-width:0.264583">opper</tspan></text>
    <path
       style="fill:#ffffff;fill-opacity:1;stroke:none;stroke-width:0.349999"
       id="path880"
       d="m -805.90235,98.1006 c -0.18583,-1.14556 0.0227,-2.27523 0.24975,-3.39651 0.30711,-1.32404 0.86223,-2.55991 1.45146,-3.7768 0.54419,-1.14998 1.30315,-2.16492 2.12013,-3.13159 0.82765,-1.00929 1.76864,-1.91854 2.69609,-2.83468 0.99116,-0.95928 1.95108,-1.94834 2.86863,-2.97819 1.02809,-1.10847 1.99914,-2.26422 2.92248,-3.46083 0.97542,-1.24732 1.89137,-2.53753 2.8078,-3.82799 0.76978,-1.13734 1.53647,-2.27687 2.3061,-3.41469 0.91977,-1.41656 1.64264,-2.94459 2.44124,-4.4295 0.6575,-1.23595 1.31568,-2.47063 1.87466,-3.75481 0.48274,-1.176397 1.03702,-2.322945 1.51578,-3.500632 0.39201,-0.96951 0.64012,-1.985946 0.91132,-2.993228 0.26532,-1.006636 0.57039,-2.006722 0.92695,-2.98508 0.2016,-0.536027 0.37067,-1.070583 0.46044,-1.63632 0.074,-0.504227 0.19224,-1.001128 0.28293,-1.50322 0.0585,-0.513715 0.17035,-1.014357 0.26991,-1.52051 0.0628,-0.458618 0.0883,-0.921168 0.0921,-1.383726 0.004,-0.424651 0.006,-0.84932 0.008,-1.273987 0.0765,-0.338662 0.1248,-0.681466 0.15144,-1.027346 0.0208,-0.333255 0.0218,-0.667292 0.0233,-1.001061 0,0 -4.16507,2.118889 -4.16507,2.118889 v 0 c -0.003,0.321257 -0.007,0.643049 -0.0395,0.962946 -0.0406,0.354933 -0.118,0.706154 -0.1245,1.064141 0.003,0.419166 0.008,0.838454 -0.003,1.257548 -0.0189,0.440029 -0.0356,0.882489 -0.12865,1.314622 -0.0976,0.501063 -0.15653,1.006954 -0.24968,1.508729 -0.10995,0.501784 -0.21681,1.004667 -0.28801,1.513683 -0.11201,0.531162 -0.30516,1.039892 -0.45246,1.561918 -0.29523,0.992134 -0.58808,1.9851 -0.86625,2.982187 -0.27918,0.993987 -0.55165,1.992342 -0.94319,2.949612 -0.47093,1.166175 -0.97137,2.321085 -1.48565,3.468705 -0.57734,1.25264 -1.19454,2.48517 -1.83774,3.70536 -0.77943,1.49073 -1.51883,3.00773 -2.48089,4.39334 -0.78024,1.13981 -1.56082,2.27925 -2.3361,3.42241 -0.88553,1.29676 -1.79762,2.57339 -2.78783,3.7934 -0.93237,1.18725 -1.9212,2.32575 -2.94531,3.43489 -0.93592,1.02216 -1.91296,2.00337 -2.90761,2.96835 -0.92065,0.92232 -1.84618,1.84406 -2.65882,2.86547 -0.81802,1.0017 -1.56311,2.05742 -2.09427,3.24354 -0.57762,1.24361 -1.08962,2.51979 -1.37916,3.86521 -0.23271,1.18102 -0.38869,2.36491 -0.34883,3.57202 0,0 4.1424,-2.13627 4.1424,-2.13627 z" />
    <path
       style="fill:#ffffff;fill-opacity:1;stroke:none;stroke-width:0.386436"
       id="path906"
       d="m -808.3858,74.09784 c 0.10551,-0.0891 0.21216,-0.17618 0.31654,-0.26722 0.54157,-0.47234 0.26398,-0.26703 0.85236,-0.70391 0.15275,-0.11338 0.61677,-0.44185 0.46189,-0.33283 -3.81143,2.68262 -4.57222,3.18444 -2.98053,2.1223 1.0791,-0.69968 2.25624,-1.12466 3.42431,-1.54076 0.87736,-0.28256 1.77531,-0.46371 2.67242,-0.62495 0.7742,-0.14449 1.55176,-0.25382 2.3324,-0.32928 0.73909,-0.0616 1.47992,-0.0699 2.22041,-0.073 0.82741,6.5e-4 1.65396,-0.01 2.48023,0.049 0.96808,0.0453 1.9253,0.22629 2.88123,0.40522 0.89718,0.12298 1.78035,0.35184 2.66674,0.55491 1.07319,0.26249 2.15833,0.43316 3.23051,0.70223 0.8011,0.2279 1.61345,0.38584 2.4188,0.58853 0.76254,0.16653 1.52376,0.3445 2.28788,0.50059 0.53017,0.0996 1.0648,0.12948 1.5957,0.22343 0.66546,0.0858 1.33277,0.13598 1.99871,0.21853 0.83208,0.0834 1.66716,0.11678 2.50155,0.14634 0.72983,0.0127 1.45983,0.0208 2.18954,-0.002 0.66302,-0.0584 1.32303,-0.14861 1.9872,-0.1879 0.65283,-0.004 1.30071,-0.0219 1.9499,-0.10496 0.52607,-0.0728 1.05509,-0.094 1.58006,-0.17746 0.61372,-0.10873 1.22158,-0.25758 1.83834,-0.34032 0.42689,-0.0421 0.84072,-0.17721 1.2657,-0.23881 0.85934,-0.1348 1.70392,-0.38846 2.55143,-0.6056 0.62425,-0.15298 1.25031,-0.30823 1.86178,-0.52663 0.33318,-0.14901 0.68632,-0.19254 1.02387,-0.31844 0.36057,-0.0909 0.68288,-0.31142 1.0377,-0.42426 0.30404,-0.15397 0.61759,-0.24912 0.92062,-0.40535 0.3944,-0.19605 0.7901,-0.38649 1.18965,-0.56682 0.44165,-0.24121 0.90346,-0.40537 1.34666,-0.64308 0.35347,-0.20843 0.18138,-0.10618 0.51634,-0.30643 0,0 3.60454,-3.55444 3.60454,-3.55444 v 0 c -0.31629,0.2525 -0.14811,0.13645 -0.5064,0.34414 -0.42218,0.27616 -0.84921,0.47744 -1.30779,0.63681 -0.38009,0.23286 -0.79382,0.35617 -1.17434,0.58733 -0.15496,0.0628 -0.20499,0.0744 -0.34573,0.16226 -0.0394,0.0246 -0.0721,0.0652 -0.11384,0.0831 -0.14499,0.0625 -0.31843,0.0413 -0.453,0.15185 -0.17113,0.10606 -0.34074,0.13412 -0.52114,0.21085 -0.31608,0.13448 -0.0395,0.0277 -0.33045,0.18754 -0.0488,0.0268 -0.10077,0.044 -0.15116,0.0661 -0.15281,0.0424 -0.29119,0.12711 -0.44051,0.17366 -0.20172,0.0629 -0.42219,0.0489 -0.61792,0.15013 -0.62469,0.24343 -1.25496,0.47141 -1.90015,0.6234 -0.81276,0.21671 -1.62691,0.43188 -2.44769,0.59639 -0.43575,0.0328 -0.86616,0.0886 -1.28438,0.25244 -0.6234,0.0602 -1.23931,0.17678 -1.85107,0.33646 -0.52553,0.0653 -1.0494,0.134 -1.57697,0.18092 -0.65064,0.0873 -1.29577,0.18748 -1.95292,0.15904 -0.66554,0.0149 -1.32966,0.0397 -1.98851,0.16889 -0.71955,0.0879 -1.44502,0.0217 -2.16737,0.0373 -0.82801,-0.004 -1.65707,-0.0149 -2.48232,-0.10533 -0.65292,-0.0781 -1.30197,-0.1842 -1.95735,-0.22817 -0.53623,-0.0859 -1.06775,-0.18376 -1.60918,-0.20843 -0.77513,-0.11276 -1.54057,-0.30012 -2.31254,-0.4389 -0.80882,-0.19966 -1.6121,-0.43295 -2.42768,-0.58987 -1.07842,-0.23211 -2.16199,-0.42836 -3.23415,-0.70188 -0.88818,-0.20079 -1.76621,-0.48348 -2.66764,-0.58378 -0.96539,-0.15368 -1.9247,-0.37336 -2.89838,-0.43883 -0.83063,-0.0839 -1.65953,-0.1141 -2.49349,-0.0868 -0.73706,-6.4e-4 -1.475,-0.0229 -2.21147,0.0173 -0.79509,0.0595 -1.58499,0.19053 -2.37325,0.32765 -0.93237,0.11899 -1.85299,0.35419 -2.76642,0.6075 -1.17237,0.38887 -2.35155,0.8072 -3.45762,1.42543 -2.26172,1.39181 -4.43335,2.99366 -6.52894,4.72512 0,0 4.32729,-2.06585 4.32729,-2.06585 z" />
    <path
       style="fill:#ffffff;fill-opacity:1;stroke:none;stroke-width:0.374057"
       id="path880-1"
       d="m -790.78673,106.5625 c -0.18584,-1.30845 0.0227,-2.59876 0.24974,-3.87948 0.30711,-1.51232 0.86223,-2.92392 1.45147,-4.31385 0.54419,-1.3135 1.30315,-2.47276 2.12012,-3.57689 0.82766,-1.15281 1.76866,-2.19135 2.69611,-3.23776 0.99117,-1.09569 1.9511,-2.22539 2.86865,-3.40168 1.02808,-1.26609 1.99913,-2.58619 2.92248,-3.95295 0.9754,-1.42468 1.89136,-2.89836 2.80778,-4.37232 0.76979,-1.29906 1.53647,-2.60063 2.3061,-3.90024 0.91977,-1.61798 1.64265,-3.36328 2.44123,-5.05935 0.6575,-1.41169 1.31568,-2.82194 1.87466,-4.28875 0.48273,-1.34367 1.03701,-2.65325 1.51576,-3.99839 0.39202,-1.107376 0.64013,-2.268347 0.91133,-3.418859 0.26531,-1.14978 0.57038,-2.292069 0.92694,-3.409552 0.2016,-0.612249 0.37067,-1.222817 0.46044,-1.869 0.074,-0.575927 0.19224,-1.143485 0.28294,-1.716973 0.0585,-0.586763 0.17034,-1.158595 0.2699,-1.736721 0.0628,-0.523832 0.0883,-1.052155 0.0921,-1.580487 0.004,-0.485035 0.006,-0.97009 0.008,-1.455144 0.0765,-0.386818 0.12481,-0.778368 0.15144,-1.173431 0.0208,-0.380642 0.0218,-0.762178 0.0233,-1.143408 0,0 -4.16506,2.420188 -4.16506,2.420188 v 0 c -0.003,0.366938 -0.007,0.734488 -0.0395,1.099873 -0.0406,0.405403 -0.118,0.806567 -0.1245,1.215458 0.003,0.47877 0.008,0.95768 -0.003,1.436367 -0.0189,0.5026 -0.0356,1.007976 -0.12864,1.501557 -0.0976,0.572312 -0.15653,1.150139 -0.24968,1.723265 -0.10994,0.573136 -0.21681,1.147527 -0.28801,1.728927 -0.112,0.606692 -0.30515,1.187763 -0.45246,1.784013 -0.29523,1.133218 -0.58807,2.267374 -0.86624,3.406243 -0.27918,1.135334 -0.55165,2.275644 -0.94318,3.369034 -0.47094,1.332 -0.97138,2.65115 -1.48565,3.96196 -0.57734,1.43078 -1.19454,2.83856 -1.83775,4.23226 -0.77943,1.70269 -1.51882,3.43539 -2.48088,5.01803 -0.78023,1.30189 -1.56081,2.60335 -2.3361,3.90907 -0.88552,1.48115 -1.79762,2.93931 -2.78783,4.3328 -0.93238,1.35608 -1.92121,2.65647 -2.94532,3.92332 -0.93593,1.16751 -1.91297,2.28825 -2.90762,3.39044 -0.92065,1.05347 -1.84618,2.10628 -2.65882,3.27293 -0.81802,1.14414 -1.56311,2.34998 -2.09427,3.70476 -0.57762,1.42045 -1.08962,2.8781 -1.37917,4.41483 -0.2327,1.34896 -0.38868,2.70119 -0.34882,4.07995 0,0 4.1424,-2.44004 4.1424,-2.44004 z" />
    <text
       xml:space="preserve"
       id="text854-2"
       style="font-style:normal;font-variant:normal;font-weight:normal;font-stretch:normal;font-size:10.5833px;line-height:1;font-family:'Tlwg Mono';-inkscape-font-specification:'Tlwg Mono';letter-spacing:0px;word-spacing:0px;white-space:pre;shape-inside:url(#rect856-0);fill:#ffffff;fill-opacity:1;stroke:none;"
       transform="translate(-895.0397,41.117576)"><tspan
         x="23.519531"
         y="117.36687"><tspan
           style="font-style:normal;font-variant:normal;font-weight:normal;font-stretch:normal;font-size:25.4px;font-family:'Tlwg Mono';-inkscape-font-specification:'Tlwg Mono';fill:#ffffff">Medi</tspan></tspan></text>
    <ellipse
       style="fill:#456983;fill-opacity:1;stroke:none;stroke-width:0.297444"
       id="path866-0"
       cx="-784.98926"
       cy="145.04601"
       rx="22.037188"
       ry="22.228853" />
    <text
       xml:space="preserve"
       style="font-style:normal;font-variant:normal;font-weight:normal;font-stretch:normal;font-size:25.4px;line-height:1;font-family:'Tlwg Mono';-inkscape-font-specification:'Tlwg Mono';letter-spacing:0px;word-spacing:0px;white-space:pre;inline-size:0;fill:#ffffff;fill-opacity:1;stroke:none;stroke-width:0.264583"
       x="131.7574"
       y="119.67501"
       id="text862-2"
       transform="translate(-894.30309,38.80944)"><tspan
         id="tspan860-4"
         x="131.7574"
         y="119.67501"
         style="font-style:normal;font-variant:normal;font-weight:normal;font-stretch:normal;font-size:25.4px;font-family:'Tlwg Mono';-inkscape-font-specification:'Tlwg Mono';fill:#ffffff;stroke-width:0.264583">opper</tspan></text>
    <path
       style="fill:#ffffff;fill-opacity:1;stroke:none;stroke-width:0.349999"
       id="path880-3"
       d="m -805.45742,170.38385 c -0.18583,-1.14556 0.0227,-2.27523 0.24975,-3.39651 0.30711,-1.32404 0.86223,-2.55991 1.45146,-3.7768 0.54419,-1.14998 1.30315,-2.16492 2.12013,-3.13159 0.82765,-1.00929 1.76864,-1.91854 2.69609,-2.83468 0.99117,-0.95928 1.95108,-1.94834 2.86864,-2.97819 1.02808,-1.10847 1.99913,-2.26422 2.92247,-3.46083 0.97542,-1.24732 1.89137,-2.53753 2.8078,-3.82799 0.76978,-1.13734 1.53647,-2.27687 2.3061,-3.41469 0.91977,-1.41655 1.64264,-2.94457 2.44124,-4.42947 0.6575,-1.23595 1.31568,-2.47063 1.87466,-3.7548 0.48274,-1.17638 1.03702,-2.32293 1.51578,-3.50062 0.39201,-0.96951 0.64012,-1.98595 0.91132,-2.99323 0.26532,-1.00663 0.57039,-2.00672 0.92695,-2.98508 0.2016,-0.53602 0.37067,-1.07058 0.46044,-1.63632 0.074,-0.50422 0.19224,-1.00113 0.28293,-1.50322 0.0585,-0.51371 0.17035,-1.01435 0.26991,-1.52051 0.0628,-0.45862 0.0883,-0.92117 0.0921,-1.38372 0.004,-0.42465 0.006,-0.84932 0.008,-1.27399 0.0765,-0.33866 0.1248,-0.68147 0.15144,-1.02735 0.0208,-0.33325 0.0218,-0.66729 0.0233,-1.00106 0,0 -4.16507,2.11889 -4.16507,2.11889 v 0 c -0.003,0.32126 -0.007,0.64305 -0.0395,0.96295 -0.0406,0.35493 -0.118,0.70615 -0.1245,1.06414 0.003,0.41916 0.008,0.83845 -0.003,1.25755 -0.0189,0.44003 -0.0356,0.88249 -0.12865,1.31462 -0.0976,0.50106 -0.15653,1.00695 -0.24968,1.50873 -0.10995,0.50178 -0.21681,1.00466 -0.28801,1.51368 -0.11201,0.53116 -0.30516,1.03989 -0.45246,1.56192 -0.29523,0.99213 -0.58808,1.9851 -0.86625,2.98219 -0.27918,0.99398 -0.55165,1.99234 -0.94319,2.94961 -0.47093,1.16616 -0.97137,2.32106 -1.48565,3.46868 -0.57733,1.25265 -1.19453,2.48516 -1.83774,3.70535 -0.77943,1.49072 -1.51883,3.00771 -2.48088,4.39332 -0.78025,1.13981 -1.56083,2.27925 -2.33611,3.42241 -0.88552,1.29676 -1.79762,2.57339 -2.78783,3.7934 -0.93237,1.18725 -1.9212,2.32575 -2.94531,3.43489 -0.93592,1.02216 -1.91296,2.00337 -2.90761,2.96835 -0.92065,0.92232 -1.84618,1.84406 -2.65882,2.86547 -0.81801,1.0017 -1.56311,2.05742 -2.09427,3.24354 -0.57761,1.24361 -1.08961,2.51979 -1.37916,3.86521 -0.23271,1.18102 -0.38869,2.36491 -0.34883,3.57202 0,0 4.1424,-2.13627 4.1424,-2.13627 z" />
    <path
       style="fill:#ffffff;fill-opacity:1;stroke:none;stroke-width:0.386436"
       id="path906-7"
       d="m -807.94087,146.38109 c 0.10552,-0.0891 0.21216,-0.17618 0.31654,-0.26722 0.54157,-0.47234 0.26399,-0.26703 0.85236,-0.70391 0.15275,-0.11338 0.61677,-0.44185 0.46189,-0.33283 -3.81143,2.68262 -4.57222,3.18444 -2.98053,2.1223 1.0791,-0.69968 2.25624,-1.12466 3.42431,-1.54076 0.87736,-0.28256 1.77531,-0.46371 2.67242,-0.62495 0.7742,-0.14449 1.55177,-0.25382 2.3324,-0.32928 0.73909,-0.0616 1.47992,-0.0699 2.22041,-0.073 0.82741,6.5e-4 1.65396,-0.01 2.48023,0.049 0.96808,0.0453 1.92531,0.22629 2.88123,0.40522 0.89718,0.12298 1.78036,0.35184 2.66674,0.55491 1.07319,0.26249 2.15833,0.43316 3.23051,0.70223 0.8011,0.2279 1.61345,0.38584 2.4188,0.58853 0.76254,0.16653 1.52376,0.3445 2.28788,0.50059 0.53017,0.0996 1.0648,0.12948 1.5957,0.22343 0.66546,0.0858 1.33277,0.13598 1.99871,0.21853 0.83208,0.0834 1.66716,0.11678 2.50155,0.14634 0.72983,0.0127 1.45983,0.0208 2.18954,-0.002 0.66302,-0.0584 1.32303,-0.14861 1.9872,-0.1879 0.65283,-0.004 1.30071,-0.0219 1.9499,-0.10496 0.52607,-0.0728 1.05509,-0.094 1.58006,-0.17746 0.61372,-0.10873 1.22158,-0.25758 1.83834,-0.34032 0.42689,-0.0421 0.84072,-0.17721 1.2657,-0.23881 0.85934,-0.1348 1.70392,-0.38846 2.55143,-0.6056 0.62425,-0.15298 1.25031,-0.30823 1.86178,-0.52663 0.33318,-0.14901 0.68632,-0.19254 1.02387,-0.31844 0.36057,-0.0909 0.68288,-0.31142 1.0377,-0.42426 0.30404,-0.15397 0.61759,-0.24912 0.92062,-0.40535 0.3944,-0.19605 0.7901,-0.38649 1.18965,-0.56682 0.44165,-0.24121 0.90346,-0.40537 1.34666,-0.64308 0.35347,-0.20842 0.18138,-0.10618 0.51634,-0.30642 0,0 3.60454,-3.55443 3.60454,-3.55443 v 0 c -0.31629,0.2525 -0.14811,0.13645 -0.5064,0.34414 -0.42218,0.27616 -0.84921,0.47744 -1.30779,0.63681 -0.38009,0.23286 -0.79382,0.35617 -1.17434,0.58733 -0.15496,0.0628 -0.20499,0.0744 -0.34573,0.16226 -0.0394,0.0246 -0.0721,0.0652 -0.11384,0.0831 -0.14499,0.0625 -0.31843,0.0413 -0.453,0.15185 -0.17113,0.10606 -0.34074,0.13411 -0.52114,0.21084 -0.31608,0.13448 -0.0395,0.0277 -0.33045,0.18754 -0.0488,0.0268 -0.10077,0.044 -0.15116,0.0661 -0.15281,0.0424 -0.29119,0.12711 -0.44051,0.17366 -0.20172,0.0629 -0.42219,0.0489 -0.61792,0.15013 -0.62469,0.24343 -1.25496,0.47141 -1.90015,0.6234 -0.81276,0.21671 -1.62691,0.43187 -2.44769,0.59638 -0.43575,0.0328 -0.86616,0.0886 -1.28438,0.25244 -0.6234,0.0602 -1.23931,0.17678 -1.85107,0.33646 -0.52553,0.0653 -1.0494,0.134 -1.57697,0.18092 -0.65064,0.0873 -1.29577,0.18748 -1.95292,0.15904 -0.66554,0.0149 -1.32966,0.0397 -1.98851,0.16889 -0.71955,0.0879 -1.44502,0.0217 -2.16737,0.0373 -0.82801,-0.004 -1.65707,-0.0149 -2.48232,-0.10533 -0.65292,-0.0781 -1.30197,-0.1842 -1.95735,-0.22817 -0.53623,-0.0859 -1.06775,-0.18376 -1.60918,-0.20843 -0.77513,-0.11276 -1.54057,-0.30012 -2.31254,-0.4389 -0.80882,-0.19966 -1.6121,-0.43295 -2.42768,-0.58986 -1.07842,-0.23211 -2.16199,-0.42836 -3.23415,-0.70188 -0.88818,-0.20079 -1.76621,-0.48348 -2.66764,-0.58378 -0.96539,-0.15368 -1.9247,-0.37335 -2.89837,-0.43882 -0.83064,-0.0839 -1.65954,-0.1141 -2.4935,-0.0868 -0.73706,-6.4e-4 -1.475,-0.0229 -2.21147,0.0173 -0.79509,0.0595 -1.58499,0.19053 -2.37325,0.32765 -0.93237,0.11898 -1.85299,0.35418 -2.76642,0.60749 -1.17237,0.38887 -2.35155,0.8072 -3.45762,1.42542 -2.26172,1.39181 -4.43335,2.99366 -6.52894,4.72512 0,0 4.32729,-2.06585 4.32729,-2.06585 z" />
    <path
       style="fill:#ffffff;fill-opacity:1;stroke:none;stroke-width:0.374057"
       id="path880-1-3"
       d="m -790.3418,178.84575 c -0.18584,-1.30845 0.0227,-2.59876 0.24974,-3.87948 0.30712,-1.51232 0.86224,-2.92392 1.45147,-4.31385 0.54419,-1.3135 1.30315,-2.47276 2.12012,-3.57689 0.82766,-1.15281 1.76866,-2.19135 2.69611,-3.23776 0.99117,-1.09569 1.9511,-2.22539 2.86865,-3.40168 1.02808,-1.26609 1.99913,-2.58619 2.92248,-3.95295 0.9754,-1.42468 1.89136,-2.89836 2.80778,-4.37232 0.76979,-1.29906 1.53647,-2.60063 2.3061,-3.90024 0.91977,-1.61798 1.64265,-3.36328 2.44123,-5.05934 0.6575,-1.41169 1.31568,-2.82193 1.87466,-4.28873 0.48273,-1.34366 1.03701,-2.65325 1.51576,-3.99838 0.39202,-1.10736 0.64013,-2.26833 0.91133,-3.41885 0.26531,-1.14978 0.57038,-2.29207 0.92694,-3.40955 0.2016,-0.61225 0.37067,-1.22282 0.46044,-1.869 0.074,-0.57593 0.19224,-1.14348 0.28294,-1.71697 0.0585,-0.58676 0.17034,-1.1586 0.2699,-1.73672 0.0628,-0.52383 0.0883,-1.05216 0.0921,-1.58049 0.004,-0.48503 0.006,-0.97009 0.008,-1.45514 0.0765,-0.38682 0.12481,-0.77837 0.15144,-1.17343 0.0208,-0.38065 0.0218,-0.76218 0.0233,-1.14341 0,0 -4.16506,2.42019 -4.16506,2.42019 v 0 c -0.003,0.36693 -0.007,0.73448 -0.0395,1.09987 -0.0406,0.4054 -0.118,0.80657 -0.1245,1.21546 0.003,0.47877 0.008,0.95768 -0.003,1.43636 -0.0189,0.5026 -0.0356,1.00798 -0.12864,1.50156 -0.0976,0.57231 -0.15653,1.15014 -0.24968,1.72327 -0.10994,0.57313 -0.21681,1.14752 -0.28801,1.72892 -0.112,0.60669 -0.30515,1.18777 -0.45246,1.78402 -0.29523,1.13321 -0.58807,2.26737 -0.86624,3.40624 -0.27918,1.13532 -0.55165,2.27562 -0.94318,3.36901 -0.47094,1.33201 -0.97138,2.65114 -1.48565,3.96195 -0.57734,1.43077 -1.19454,2.83854 -1.83775,4.23224 -0.77943,1.70269 -1.51882,3.43539 -2.48088,5.01803 -0.78023,1.30189 -1.56081,2.60335 -2.3361,3.90907 -0.88552,1.48115 -1.79762,2.93931 -2.78783,4.3328 -0.93238,1.35608 -1.92121,2.65647 -2.94532,3.92332 -0.93593,1.16751 -1.91297,2.28825 -2.90762,3.39044 -0.92065,1.05347 -1.84618,2.10628 -2.65882,3.27293 -0.81802,1.14414 -1.56311,2.34998 -2.09427,3.70476 -0.57762,1.42045 -1.08962,2.8781 -1.37916,4.41483 -0.23271,1.34896 -0.38869,2.70119 -0.34883,4.07995 0,0 4.1424,-2.44004 4.1424,-2.44004 z" />
    <text
       xml:space="preserve"
       id="text854-0"
       style="font-style:normal;font-variant:normal;font-weight:normal;font-stretch:normal;font-size:10.5833px;line-height:1;font-family:Keraleeyam;-inkscape-font-specification:Keraleeyam;letter-spacing:3.77825px;word-spacing:0px;white-space:pre;shape-inside:url(#rect856-00);fill:#ffffff;fill-opacity:1;stroke:none;"
       transform="translate(-562.47501,-95.023921)"><tspan
         x="23.519531"
         y="113.21953"><tspan
           style="font-style:normal;font-variant:normal;font-weight:normal;font-stretch:normal;font-size:25.4px;font-family:Keraleeyam;-inkscape-font-specification:Keraleeyam;fill:#ffffff">Medi</tspan></tspan></text>
    <ellipse
       style="fill:#456983;fill-opacity:1;stroke:none;stroke-width:0.297444"
       id="path866-00"
       cx="-458.30688"
       cy="2.8925788"
       rx="22.037188"
       ry="22.228853" />
    <text
       xml:space="preserve"
       style="font-style:normal;font-variant:normal;font-weight:normal;font-stretch:normal;font-size:25.4px;line-height:1;font-family:Keraleeyam;-inkscape-font-specification:Keraleeyam;letter-spacing:3.77825px;word-spacing:0px;white-space:pre;inline-size:0;fill:#ffffff;fill-opacity:1;stroke:none;stroke-width:0.264583"
       x="131.7574"
       y="119.67501"
       id="text862-4"
       transform="translate(-567.64894,-102.17393)"><tspan
         id="tspan860-7"
         x="131.7574"
         y="119.67501"
         style="font-style:normal;font-variant:normal;font-weight:normal;font-stretch:normal;font-size:25.4px;font-family:Keraleeyam;-inkscape-font-specification:Keraleeyam;fill:#ffffff;stroke-width:0.264583">opper</tspan></text>
    <path
       style="fill:#ffffff;fill-opacity:1;stroke:none;stroke-width:0.349999"
       id="path880-5"
       d="m -478.77506,28.230204 c -0.18583,-1.14556 0.0227,-2.27523 0.24975,-3.39651 0.30711,-1.32404 0.86223,-2.55991 1.45146,-3.7768 0.54419,-1.14998 1.30315,-2.16492 2.12013,-3.13159 0.82766,-1.00929 1.76864,-1.91854 2.69609,-2.83468 0.99117,-0.95928 1.95108,-1.94834 2.86864,-2.97819 1.02808,-1.10847 1.99913,-2.2642205 2.92248,-3.4608305 0.97541,-1.24732 1.89136,-2.53753 2.80779,-3.82799 0.76978,-1.13734 1.53647,-2.27687 2.3061,-3.41469 0.91977,-1.41654997 1.64264,-2.94457 2.44124,-4.42947 0.6575,-1.23595 1.31568,-2.47063 1.87466,-3.75481 0.48274,-1.17639 1.03702,-2.32294 1.51578,-3.5006295 0.39201,-0.96951 0.64012,-1.98594 0.91132,-2.99323 0.26532,-1.00663 0.57039,-2.00672 0.92695,-2.98508 0.2016,-0.53602 0.37067,-1.07058 0.46044,-1.63632 0.074,-0.50422 0.19224,-1.00112 0.28293,-1.50322 0.0585,-0.51371 0.17035,-1.01435 0.26991,-1.52051 0.0628,-0.45861 0.0883,-0.92116 0.0921,-1.38372 0.004,-0.42465 0.006,-0.84932 0.008,-1.27399 0.0765,-0.33866 0.1248,-0.68147 0.15144,-1.02735 0.0208,-0.33325 0.0218,-0.66729 0.0233,-1.00106 0,0 -4.16507,2.11889 -4.16507,2.11889 v 0 c -0.003,0.32126 -0.007,0.64305 -0.0395,0.96295 -0.0406,0.35493 -0.118,0.70615 -0.1245,1.06414 0.003,0.41917 0.008,0.83845 -0.003,1.25755 -0.0189,0.44003 -0.0356,0.88249 -0.12865,1.31462 -0.0976,0.50106 -0.15653,1.00695 -0.24968,1.50873 -0.10995,0.50178 -0.21681,1.00467 -0.28801,1.51368 -0.11201,0.53116 -0.30516,1.03989 -0.45246,1.56192 -0.29523,0.99213 -0.58808,1.9851 -0.86625,2.98219 -0.27918,0.99398 -0.55165,1.9923395 -0.94319,2.9496095 -0.47093,1.16617 -0.97137,2.32108 -1.48565,3.4687 -0.57733,1.25265 -1.19453,2.48516 -1.83774,3.70535 -0.77943,1.49073003 -1.51883,3.00771 -2.48088,4.39332 -0.78025,1.13981 -1.56083,2.27926 -2.33611,3.42241 -0.88552,1.29676 -1.79762,2.57339 -2.78783,3.7934005 -0.93237,1.18725 -1.9212,2.32575 -2.9453,3.43489 -0.93593,1.02216 -1.91297,2.00338 -2.90762,2.96835 -0.92065,0.92232 -1.84617,1.84406 -2.65882,2.86547 -0.81801,1.0017 -1.56311,2.05742 -2.09427,3.24354 -0.57761,1.24362 -1.08961,2.51979 -1.37916,3.86522 -0.23271,1.18101 -0.38869,2.3649 -0.34882,3.57201 0,0 4.14239,-2.13627 4.14239,-2.13627 z" />
    <path
       style="fill:#ffffff;fill-opacity:1;stroke:none;stroke-width:0.386436"
       id="path906-3"
       d="m -481.25851,4.2274435 c 0.10552,-0.0891 0.21216,-0.17618 0.31654,-0.26722 0.54157,-0.47234 0.26399,-0.26703 0.85237,-0.70391 0.15274,-0.11338 0.61676,-0.44185 0.46188,-0.33283 -3.81143,2.68262 -4.57222,3.18444 -2.98053,2.1223 1.0791,-0.69968 2.25624,-1.12466 3.42431,-1.54076 0.87737,-0.28255 1.77531,-0.46371 2.67242,-0.62495 0.77421,-0.14449 1.55177,-0.25382 2.33241,-0.32928 0.73909,-0.0616 1.47991,-0.0699 2.2204,-0.073 0.82741,6.5e-4 1.65396,-0.01 2.48023,0.049 0.96808,0.0453 1.92531,0.2263 2.88124,0.40522 0.89717,0.12298 1.78035,0.35184 2.66673,0.55491 1.07319,0.2625 2.15834,0.43316 3.23051,0.70223 0.8011,0.2279 1.61345,0.38585 2.4188,0.58853 0.76254,0.16653 1.52376,0.3445 2.28788,0.50059 0.53017,0.0996 1.0648,0.12948 1.5957,0.22343 0.66546,0.0858 1.33277,0.13598 1.99871,0.21854 0.83208,0.0834 1.66716,0.11677 2.50155,0.14633 0.72983,0.0127 1.45983,0.0208 2.18954,-0.002 0.66302,-0.0584 1.32303,-0.14862 1.9872,-0.18791 0.65283,-0.004 1.30071,-0.0219 1.9499,-0.10496 0.52607,-0.0728 1.05509,-0.094 1.58006,-0.17746 0.61372,-0.10873 1.22158,-0.25758 1.83834,-0.34032 0.42689,-0.0421 0.84072,-0.17721 1.2657,-0.23881 0.85934,-0.1348 1.70392,-0.38846 2.55143,-0.6056 0.62425,-0.15298 1.25031,-0.30823 1.86178,-0.52663 0.33318,-0.149 0.68632,-0.19254 1.02387,-0.31844 0.36057,-0.0909 0.68288,-0.31142 1.0377,-0.42426 0.30404,-0.15396 0.61759,-0.24912 0.92062,-0.40535 0.3944,-0.19604 0.7901,-0.38649 1.18965,-0.56682 0.44165,-0.24121 0.90346,-0.40536 1.34666,-0.64308 0.35347,-0.20842 0.18138,-0.10618 0.51634,-0.30642 0,0 3.60454,-3.55443 3.60454,-3.55443 v 0 c -0.31629,0.2525 -0.14811,0.13645 -0.5064,0.34414 -0.42218,0.27617 -0.84921,0.47745 -1.30779,0.63681 -0.38009,0.23286 -0.79382,0.35617 -1.17434,0.58734003 -0.15496,0.0628 -0.20499,0.0744 -0.34573,0.16226 -0.0394,0.0246 -0.0721,0.0652 -0.11384,0.0831 -0.14499,0.0625 -0.31843,0.0413 -0.453,0.15185 -0.17113,0.10605 -0.34074,0.1341 -0.52114,0.21083 -0.31608,0.13448 -0.0395,0.0277 -0.33045,0.18755 -0.0488,0.0268 -0.10077,0.044 -0.15116,0.0661 -0.15281,0.0424 -0.29119,0.12712 -0.44051,0.17366 -0.20172,0.0629 -0.42219,0.0489 -0.61792,0.15013 -0.62469,0.24343 -1.25496,0.47141 -1.90015,0.6234 -0.81276,0.21670997 -1.62691,0.43186997 -2.44769,0.59638997 -0.43575,0.0328 -0.86616,0.0886 -1.28438,0.25243 -0.6234,0.0602 -1.23931,0.17678 -1.85107,0.33646 -0.52553,0.0653 -1.0494,0.134 -1.57697,0.18092 -0.65064,0.0873 -1.29577,0.18748 -1.95292,0.15904 -0.66554,0.0149 -1.32966,0.0397 -1.98851,0.16889 -0.71955,0.0879 -1.44502,0.0217 -2.16737,0.0373 -0.82801,-0.004 -1.65707,-0.0149 -2.48232,-0.10532 -0.65292,-0.0781 -1.30197,-0.18421 -1.95735,-0.22818 -0.53623,-0.0859 -1.06775,-0.18376 -1.60918,-0.20842 -0.77513,-0.11277 -1.54057,-0.30013 -2.31254,-0.43891 -0.80882,-0.19966 -1.6121,-0.43294 -2.42768,-0.58986 -1.07842,-0.23210997 -2.16199,-0.42835997 -3.23415,-0.70187997 -0.88818,-0.20079 -1.76621,-0.48348 -2.66764,-0.58378 -0.96539,-0.15368 -1.9247,-0.37334 -2.89837,-0.43882 -0.83064,-0.0839 -1.65954,-0.1141 -2.4935,-0.0868 -0.73706,-6.4e-4 -1.475,-0.0229 -2.21147,0.0173 -0.79509,0.0595 -1.58499,0.19053 -2.37325,0.32765 -0.93237,0.11898 -1.85299,0.35418 -2.76642,0.60749 -1.17237,0.38887 -2.35155,0.80721 -3.45762,1.42541997 -2.26172,1.39181 -4.43335,2.99366 -6.52894,4.72512 0,0 4.32729,-2.06584 4.32729,-2.06584 z" />
    <path
       style="fill:#ffffff;fill-opacity:1;stroke:none;stroke-width:0.374057"
       id="path880-1-1"
       d="m -463.65944,36.692104 c -0.18583,-1.30845 0.0227,-2.59875 0.24974,-3.87948 0.30712,-1.51232 0.86224,-2.92392 1.45147,-4.31385 0.54419,-1.3135 1.30315,-2.47276 2.12012,-3.57689 0.82766,-1.15281 1.76866,-2.19135 2.69611,-3.23776 0.99117,-1.09569 1.9511,-2.22539 2.86865,-3.40168 1.02808,-1.26609 1.99913,-2.58619 2.92248,-3.95295 0.9754,-1.42468 1.89136,-2.89836 2.80778,-4.3723205 0.76979,-1.29906 1.53647,-2.60063 2.3061,-3.90024 0.91977,-1.61798 1.64265,-3.36328 2.44123,-5.05933997 0.6575,-1.41169 1.31568,-2.82193003 1.87466,-4.28873003 0.48273,-1.34366 1.03701,-2.65325 1.51576,-3.99839 0.39202,-1.10737 0.64013,-2.26834 0.91133,-3.4188595 0.26531,-1.14978 0.57038,-2.29206 0.92694,-3.40955 0.2016,-0.61225 0.37067,-1.22281 0.46044,-1.869 0.074,-0.57592 0.19224,-1.14348 0.28294,-1.71697 0.0585,-0.58676 0.17034,-1.1586 0.2699,-1.73672 0.0628,-0.52383 0.0883,-1.05216 0.0921,-1.58049 0.004,-0.48503 0.006,-0.97009 0.008,-1.45514 0.0765,-0.38682 0.12481,-0.77837 0.15144,-1.17343 0.0208,-0.38065 0.0218,-0.76218 0.0233,-1.14341 0,0 -4.16506,2.42019 -4.16506,2.42019 v 0 c -0.003,0.36693 -0.007,0.73448 -0.0395,1.09987 -0.0406,0.4054 -0.118,0.80657 -0.1245,1.21546 0.003,0.47877 0.008,0.95768 -0.003,1.43636 -0.0189,0.5026 -0.0356,1.00798 -0.12864,1.50156 -0.0976,0.57231 -0.15653,1.15014 -0.24968,1.72327 -0.10994,0.57313 -0.21681,1.14752 -0.28801,1.72892 -0.112,0.6067 -0.30515,1.18777 -0.45246,1.78402 -0.29523,1.13321 -0.58807,2.2673695 -0.86624,3.4062395 -0.27918,1.13533 -0.55165,2.27564 -0.94318,3.36903 -0.47094,1.33201 -0.97138,2.65114 -1.48565,3.96195 -0.57734,1.43077003 -1.19454,2.83854 -1.83775,4.23224 -0.77943,1.70269 -1.51882,3.43539 -2.48088,5.01803 -0.78023,1.3019 -1.56081,2.6033505 -2.3361,3.9090705 -0.88552,1.48115 -1.79762,2.93931 -2.78783,4.3328 -0.93238,1.35608 -1.92121,2.65647 -2.94532,3.92332 -0.93593,1.16751 -1.91297,2.28825 -2.90762,3.39044 -0.92065,1.05347 -1.84618,2.10628 -2.65882,3.27293 -0.81802,1.14414 -1.56311,2.34998 -2.09427,3.70476 -0.57762,1.42045 -1.08962,2.8781 -1.37916,4.41483 -0.23271,1.34896 -0.38869,2.70119 -0.34883,4.07995 0,0 4.1424,-2.44004 4.1424,-2.44004 z" />
    <text
       xml:space="preserve"
       id="text854-1"
       style="font-style:normal;font-variant:normal;font-weight:normal;font-stretch:normal;font-size:10.5833px;line-height:1;font-family:'Tibetan Machine Uni';-inkscape-font-specification:'Tibetan Machine Uni';letter-spacing:0px;word-spacing:0px;white-space:pre;shape-inside:url(#rect856-4);fill:#ffffff;fill-opacity:1;stroke:none;"
       transform="translate(-895.51284,-96.987273)"><tspan
         x="23.519531"
         y="112.525"><tspan
           style="font-style:normal;font-variant:normal;font-weight:normal;font-stretch:normal;font-size:25.4px;font-family:'Tibetan Machine Uni';-inkscape-font-specification:'Tibetan Machine Uni';fill:#ffffff">Medi</tspan></tspan></text>
    <ellipse
       style="fill:#455383;fill-opacity:1;stroke:none;stroke-width:0.297444"
       id="path866-3"
       cx="-785.43414"
       cy="0.92910188"
       rx="22.037188"
       ry="22.228853" />
    <text
       xml:space="preserve"
       style="font-style:normal;font-variant:normal;font-weight:normal;font-stretch:normal;font-size:25.4px;line-height:1;font-family:'Tibetan Machine Uni';-inkscape-font-specification:'Tibetan Machine Uni';letter-spacing:0px;word-spacing:0px;white-space:pre;inline-size:0;fill:#ffffff;fill-opacity:1;stroke:none;stroke-width:0.264583"
       x="131.7574"
       y="119.67501"
       id="text862-0"
       transform="translate(-894.77623,-104.13728)"><tspan
         id="tspan860-0"
         x="131.7574"
         y="119.67501"
         style="font-style:normal;font-variant:normal;font-weight:normal;font-stretch:normal;font-size:25.4px;font-family:'Tibetan Machine Uni';-inkscape-font-specification:'Tibetan Machine Uni';fill:#ffffff;stroke-width:0.264583">opper</tspan></text>
    <path
       style="fill:#ffffff;fill-opacity:1;stroke:none;stroke-width:0.349999"
       id="path880-4"
       d="m -805.90235,26.266897 c -0.18583,-1.14557 0.0227,-2.27523 0.24975,-3.39652 0.30711,-1.32404 0.86223,-2.55991 1.45146,-3.77679 0.54419,-1.14999 1.30315,-2.16493 2.12013,-3.1316 0.82766,-1.00928 1.76864,-1.91854 2.69609,-2.83467 0.99117,-0.95929 1.95108,-1.94834 2.86864,-2.9782 1.02808,-1.1084596 1.99913,-2.2642196 2.92248,-3.4608196 0.97541,-1.24732 1.89136,-2.53753 2.80779,-3.82799 0.76978,-1.13735 1.53647,-2.27687002 2.3061,-3.41470002 0.91977,-1.41654998 1.64264,-2.94455998 2.44124,-4.42946998 0.6575,-1.23595 1.31568,-2.47063 1.87466,-3.75481 0.48274,-1.17639 1.03702,-2.3229404 1.51578,-3.5006304 0.39201,-0.96951 0.64012,-1.98594 0.91132,-2.99323 0.26532,-1.00663 0.57039,-2.00672 0.92695,-2.98508 0.2016,-0.53602 0.37067,-1.07058 0.46044,-1.63632 0.074,-0.50422 0.19224,-1.00112 0.28293,-1.50322 0.0585,-0.51371 0.17035,-1.01435 0.26991,-1.52051 0.0628,-0.45861 0.0883,-0.92116 0.0921,-1.38372 0.004,-0.424649 0.006,-0.849319 0.008,-1.273989 0.0765,-0.33866 0.1248,-0.68147 0.15144,-1.02735 0.0208,-0.33325 0.0218,-0.66729 0.0233,-1.00106 0,0 -4.16507,2.11889 -4.16507,2.11889 v 0 c -0.003,0.32126 -0.007,0.64305 -0.0395,0.96295 -0.0406,0.354929 -0.118,0.706149 -0.1245,1.064139 0.003,0.41917 0.008,0.83845 -0.003,1.25755 -0.0189,0.44003 -0.0356,0.88249 -0.12865,1.31462 -0.0976,0.50106 -0.15653,1.00695 -0.24968,1.50873 -0.10995,0.50178 -0.21681,1.00467 -0.28801,1.51368 -0.11201,0.53116 -0.30516,1.03989 -0.45246,1.56192 -0.29523,0.99213 -0.58808,1.9851 -0.86625,2.98219 -0.27918,0.99398 -0.55165,1.99234 -0.94319,2.94961 -0.47093,1.1661704 -0.97137,2.3210804 -1.48565,3.4687004 -0.57733,1.25265 -1.19453,2.48517 -1.83774,3.70536 -0.77943,1.49072 -1.51882,3.00770998 -2.48088,4.39331 -0.78024,1.13982 -1.56083,2.27926 -2.33611,3.42242 -0.88552,1.29675 -1.79762,2.57339 -2.78783,3.7934 -0.93237,1.18725 -1.9212,2.3257496 -2.9453,3.4348796 -0.93593,1.02217 -1.91297,2.00338 -2.90762,2.96836 -0.92065,0.92231 -1.84617,1.84405 -2.65882,2.86547 -0.81801,1.0017 -1.56311,2.05742 -2.09427,3.24353 -0.57761,1.24362 -1.08961,2.51979 -1.37916,3.86522 -0.23271,1.18102 -0.38869,2.3649 -0.34882,3.57201 0,0 4.14239,-2.13626 4.14239,-2.13626 z" />
    <path
       style="fill:#ffffff;fill-opacity:1;stroke:none;stroke-width:0.386436"
       id="path906-8"
       d="m -808.3858,2.2641374 c 0.10552,-0.0891 0.21216,-0.17619 0.31654,-0.26723 0.54157,-0.47234 0.26399,-0.26703 0.85237,-0.70391 0.15274,-0.11338 0.61676,-0.44184002 0.46188,-0.33283002 -3.81143,2.68263002 -4.57222,3.18444002 -2.98053,2.12230002 1.0791,-0.69968 2.25624,-1.12465 3.42431,-1.54075 0.87737,-0.28256 1.77531,-0.46371 2.67242,-0.62496002 0.77421,-0.14448 1.55177,-0.25381 2.33241,-0.32927 0.73909,-0.0616 1.47991,-0.0699 2.2204,-0.073 0.82741,6.5e-4 1.65396,-0.01 2.48023,0.049 0.96808,0.0453 1.92531,0.22629 2.88124,0.40521 0.89717,0.12299002 1.78035,0.35185002 2.66673,0.55492002 1.0732,0.26249 2.15834,0.43315 3.23051,0.70222 0.8011,0.2279 1.61345,0.38585 2.4188,0.58854 0.76254,0.16653 1.52376,0.34449 2.28788,0.50058 0.53017,0.0996 1.0648,0.12948 1.5957,0.22344 0.66546,0.0858 1.33277,0.13597 1.99871,0.21853 0.83208,0.0834 1.66716,0.11677 2.50155,0.14634 0.72983,0.0127 1.45983,0.0208 2.18954,-0.002 0.66302,-0.0584 1.32303,-0.14861 1.9872,-0.1879 0.65283,-0.004 1.30071,-0.0219 1.9499,-0.10496 0.52607,-0.0728 1.05509,-0.094 1.58006,-0.17746 0.61372,-0.10874 1.22158,-0.25758 1.83834,-0.34032 0.42689,-0.0421 0.84072,-0.17721 1.2657,-0.23881 0.85934,-0.13481 1.70392,-0.38846 2.55143,-0.6056 0.62425,-0.15299 1.25031,-0.30824 1.86178,-0.52664 0.33318,-0.149 0.68632,-0.19253 1.02387,-0.31843 0.36057,-0.0909 0.68288,-0.31142 1.0377,-0.42426002 0.30404,-0.15397 0.61759,-0.24912 0.92062,-0.40535 0.3944,-0.19605 0.7901,-0.3865 1.18965,-0.56682 0.44165,-0.24121 0.90346,-0.40537 1.34666,-0.64308 0.35347,-0.20842 0.18138,-0.10618 0.51634,-0.30642 0,0 3.60454,-3.55442998 3.60454,-3.55442998 v 0 c -0.31629,0.2525 -0.14811,0.13644 -0.5064,0.34414 -0.42218,0.27616 -0.84921,0.47744 -1.30779,0.63681 -0.38009,0.23285 -0.79382,0.35617 -1.17434,0.58733 -0.15496,0.0628 -0.20499,0.0744 -0.34573,0.16226 -0.0394,0.0246 -0.0721,0.0652 -0.11384,0.0831 -0.14499,0.0625 -0.31843,0.0413 -0.453,0.15185 -0.17113,0.10606 -0.34074,0.13411 -0.52114,0.21084 -0.31608,0.13448 -0.0395,0.0277 -0.33045,0.18754 -0.0488,0.0268 -0.10077,0.044 -0.15116,0.0661 -0.15281,0.0424 -0.29119,0.12711 -0.44051,0.17366 -0.20172,0.0629 -0.42219,0.0489 -0.61792,0.15013 -0.62469,0.24342 -1.25496,0.4714 -1.90015,0.6234 -0.81276,0.21669998 -1.62691,0.43186998 -2.44769,0.59637998 -0.43575,0.0328 -0.86616,0.0886 -1.28438,0.25243 -0.6234,0.0602 -1.23931,0.17679 -1.85107,0.33647 -0.52553,0.0653 -1.0494,0.13399 -1.57697,0.18091 -0.65064,0.0873 -1.29577,0.18748 -1.95292,0.15905 -0.66554,0.0149 -1.32966,0.0397 -1.98851,0.16889 -0.71955,0.0879 -1.44502,0.0217 -2.16737,0.0373 -0.82801,-0.004 -1.65707,-0.0149 -2.48232,-0.10532 -0.65292,-0.0781 -1.30197,-0.1842 -1.95735,-0.22817 -0.53623,-0.0859 -1.06775,-0.18376 -1.60918,-0.20843 -0.77513,-0.11276 -1.54057,-0.30013 -2.31254,-0.43891 -0.80882,-0.19965 -1.6121,-0.43294 -2.42768,-0.58985 -1.07842,-0.23210998 -2.16199,-0.42835998 -3.23415,-0.70188998 -0.88818,-0.20078 -1.76621,-0.48347 -2.66764,-0.58377 -0.96539,-0.15369 -1.9247,-0.37335 -2.89837,-0.43882 -0.83064,-0.0839 -1.65954,-0.1141 -2.4935,-0.0868 -0.73706,-6.5e-4 -1.475,-0.0229 -2.21147,0.0173 -0.79509,0.0595 -1.58499,0.19053 -2.37325,0.32765 -0.93237,0.11898 -1.85299,0.35417 -2.76642,0.60748 -1.17237,0.38887 -2.35155,0.80721 -3.45762,1.42541998 -2.26172,1.39181 -4.43335,2.99367002 -6.52894,4.72513002 0,0 4.32729,-2.06585 4.32729,-2.06585 z" />
    <path
       style="fill:#ffffff;fill-opacity:1;stroke:none;stroke-width:0.374057"
       id="path880-1-2"
       d="m -790.78673,34.728787 c -0.18583,-1.30845 0.0227,-2.59875 0.24975,-3.87948 0.30711,-1.51232 0.86223,-2.92391 1.45146,-4.31385 0.54419,-1.31349 1.30315,-2.47276 2.12012,-3.57689 0.82766,-1.1528 1.76866,-2.19135 2.69611,-3.23775 0.99117,-1.0957 1.9511,-2.22539 2.86865,-3.40168 1.02808,-1.2661 1.99913,-2.5862 2.92248,-3.95296 0.9754,-1.42467 1.89136,-2.8983496 2.80778,-4.3723196 0.76979,-1.29906 1.53647,-2.60062 2.3061,-3.90024 0.91977,-1.61798 1.64265,-3.36328002 2.44123,-5.05933002 0.6575,-1.41169998 1.31568,-2.82193998 1.87466,-4.28873998 0.48273,-1.34366 1.03701,-2.65325 1.51576,-3.99839 0.39202,-1.1073704 0.64013,-2.2683404 0.91133,-3.4188604 0.26531,-1.14977 0.57038,-2.29206 0.92694,-3.40955 0.2016,-0.61225 0.37067,-1.22281 0.46044,-1.869 0.074,-0.57592 0.19224,-1.14348 0.28294,-1.71697 0.0585,-0.58676 0.17034,-1.1586 0.2699,-1.73672 0.0628,-0.52383 0.0883,-1.05216 0.0921,-1.58049 0.004,-0.48503 0.006,-0.97009 0.008,-1.455139 0.0765,-0.38682 0.12481,-0.77837 0.15144,-1.17343 0.0208,-0.38065 0.0218,-0.76218 0.0233,-1.14341 0,0 -4.16506,2.42019 -4.16506,2.42019 v 0 c -0.003,0.366939 -0.007,0.734489 -0.0395,1.099869 -0.0406,0.4054 -0.118,0.80657 -0.1245,1.21546 0.003,0.47877 0.008,0.95768 -0.003,1.43637 -0.0189,0.5026 -0.0356,1.00797 -0.12864,1.50155 -0.0976,0.57231 -0.15653,1.15014 -0.24968,1.72327 -0.10994,0.57313 -0.21681,1.14752 -0.28801,1.72892 -0.112,0.6067 -0.30515,1.18777 -0.45246,1.78402 -0.29523,1.13322 -0.58807,2.26737 -0.86624,3.40624 -0.27918,1.1353304 -0.55165,2.2756404 -0.94318,3.3690304 -0.47094,1.33201 -0.97138,2.65114 -1.48565,3.96196 -0.57734,1.43076 -1.19454,2.83852998 -1.83775,4.23223 -0.77943,1.7027 -1.51882,3.4354 -2.48088,5.01804 -0.78023,1.30189 -1.56081,2.60335 -2.3361,3.9090596 -0.88552,1.48116 -1.79762,2.93931 -2.78783,4.33281 -0.93238,1.35607 -1.92121,2.65646 -2.94532,3.92331 -0.93593,1.16751 -1.91297,2.28826 -2.90762,3.39045 -0.92065,1.05346 -1.84618,2.10627 -2.65882,3.27292 -0.81802,1.14415 -1.56311,2.34999 -2.09427,3.70477 -0.57762,1.42044 -1.08962,2.87809 -1.37916,4.41483 -0.23271,1.34895 -0.38869,2.70118 -0.34883,4.07994 0,0 4.1424,-2.44004 4.1424,-2.44004 z" />
    <path
       id="path866-00-7-4-2"
       style="fill:#475062;fill-opacity:1;stroke:none;stroke-width:0.87061"
       d="M 381.30859 307.25781 A 64.502405 65.063407 0 0 0 317.04297 372.32031 A 64.502405 65.063407 0 0 0 336.98828 419.36523 C 337.69372 418.21775 338.39439 417.06793 338.99805 415.86523 C 341.08535 411.70642 342.69686 407.32479 344.13672 402.88672 L 335.22656 406.74219 C 338.39093 402.58396 342.23839 399.07051 346.31445 395.83984 C 346.60155 394.88226 346.89165 393.92209 347.17969 392.96875 C 348.58764 388.30878 350.52827 381.67399 351.91797 376.94336 C 354.18512 368.94044 357.01986 361.00187 357.97461 352.69727 C 358.22644 351.19222 357.98497 349.9689 357.32812 348.64648 C 357.23062 348.43287 357.13462 348.2194 357.03711 348.00586 L 376.16602 337.22656 C 376.24652 337.41214 376.32575 337.59763 376.40625 337.7832 C 377.28117 339.51986 377.83902 341.14177 377.41016 343.13672 C 375.968 351.80412 372.53011 359.98171 370.04492 368.37109 C 368.46646 373.40299 366.95517 378.45137 365.45508 383.50391 C 368.99137 381.55522 372.56066 379.68555 376.10156 377.8457 C 378.02912 376.84413 385.11074 376.01928 387.33594 375.69727 C 388.57028 375.54129 389.80765 375.40473 391.04492 375.2793 C 391.7021 371.30579 392.37891 367.33546 393.16992 363.38477 C 394.33814 357.01679 395.71552 350.69841 397.35156 344.43555 C 398.2698 341.24215 399.20909 338.05225 400.63477 335.04492 C 401.6922 332.92703 402.88527 330.88315 403.83008 328.71094 C 404.9422 325.92561 406.78007 323.56035 408.38867 321.0625 C 409.60365 319.03834 410.63133 316.895 411.93945 314.93359 A 64.502405 65.063407 0 0 0 381.54492 307.25781 A 64.502405 65.063407 0 0 0 381.30859 307.25781 z M 422.55859 322.10352 C 421.94099 323.45162 421.29631 324.78578 420.47656 326.03516 C 419.0106 329.01331 417.71628 332.02342 416.71289 335.20312 C 414.9762 341.49668 413.28477 347.80917 412.09766 354.23633 C 410.61097 360.85725 409.41419 367.53292 408.24805 374.21484 C 408.77275 374.19583 409.29763 374.17231 409.82227 374.1543 C 412.01046 374.09269 414.19991 374.08934 416.38867 374.07422 L 407.08398 380.83594 C 406.83306 382.26385 406.58854 383.69251 406.33008 385.11914 C 404.72378 393.84093 402.71724 402.68694 403.08008 411.60156 C 403.4301 416.0416 404.01002 420.29977 406.80664 423.95117 C 408.23787 426.0091 409.68758 428.08386 411.22461 430.08594 A 64.502405 65.063407 0 0 0 446.04883 372.32031 A 64.502405 65.063407 0 0 0 422.55859 322.10352 z M 375.30273 381.78125 C 375.36044 381.72398 373.33846 382.83697 372.62305 383.27539 C 372.27558 383.48832 371.93794 383.71615 371.59961 383.94336 C 372.78372 383.26291 373.96755 382.58133 375.14062 381.88281 C 375.24362 381.82149 375.29449 381.78943 375.30273 381.78125 z M 389.13086 386.87305 C 382.91058 387.02103 376.69315 387.37171 370.53711 388.32031 C 367.77208 388.82045 366.00762 389.08589 363.60352 389.73828 C 363.29546 390.77611 362.9892 391.81389 362.67969 392.85156 C 361.13579 398.02755 359.89949 402.53516 357.74414 407.4668 C 356.92005 409.35244 355.87379 411.13519 354.93945 412.96875 C 353.85016 414.44844 352.84647 415.99327 351.67188 417.40625 C 349.43594 420.09599 347.18816 422.06983 344.58984 424.36914 C 344.49403 424.45393 344.00712 424.87011 343.78125 425.06641 A 64.502405 65.063407 0 0 0 381.54492 437.38477 A 64.502405 65.063407 0 0 0 389.86133 436.8418 C 389.36325 436.1758 388.86267 435.51128 388.36719 434.84375 C 385.17749 430.9813 384.4245 426.33782 384.02148 421.50781 C 383.71742 412.26282 386.09278 403.12457 387.84766 394.10352 C 388.30308 391.69809 388.72377 389.2864 389.13086 386.87305 z "
       transform="scale(0.26458333)"
       inkscape:export-filename="/home/prem/medihopper/views/images/logo.png"
       inkscape:export-xdpi="96"
       inkscape:export-ydpi="96" />
    <text
       xml:space="preserve"
       style="font-style:normal;font-variant:normal;font-weight:normal;font-stretch:normal;font-size:25.4px;line-height:1;font-family:Keraleeyam;-inkscape-font-specification:Keraleeyam;letter-spacing:9.26042px;word-spacing:0px;white-space:pre;inline-size:0;fill:#475062;fill-opacity:1;stroke:none;stroke-width:0.264583;"
       x="131.7574"
       y="119.67501"
       id="text862-4-9-6-8"
       transform="matrix(0.77443011,0,0,0.77443011,19.20796,13.072834)"
       inkscape:export-filename="/home/prem/medihopper/views/images/logo.png"
       inkscape:export-xdpi="96"
       inkscape:export-ydpi="96"><tspan
         id="tspan860-7-3-1-3"
         x="131.7574"
         y="119.67501"
         style="font-style:normal;font-variant:normal;font-weight:normal;font-stretch:normal;font-size:25.4px;font-family:Keraleeyam;-inkscape-font-specification:Keraleeyam;fill:#475062;stroke-width:0.264583;fill-opacity:1;">opper</tspan></text>
    <text
       xml:space="preserve"
       id="text854-0-7-1-8"
       style="font-style:normal;font-variant:normal;font-weight:normal;font-stretch:normal;font-size:10.5833px;line-height:1;font-family:Keraleeyam;-inkscape-font-specification:Keraleeyam;letter-spacing:9.26042px;word-spacing:0px;white-space:pre;shape-inside:url(#rect856-00-7-8-5-2);fill:#475062;fill-opacity:1;stroke:none;"
       transform="matrix(0.77443011,0,0,0.77443011,7.8384308,18.072144)"
       inkscape:export-filename="/home/prem/medihopper/views/images/logo.png"
       inkscape:export-xdpi="96"
       inkscape:export-ydpi="96"><tspan
         x="23.519531"
         y="113.21953"><tspan
           style="font-style:normal;font-variant:normal;font-weight:normal;font-stretch:normal;font-size:25.4px;font-family:Keraleeyam;-inkscape-font-specification:Keraleeyam;fill:#475062;fill-opacity:1">medi</tspan></tspan></text>
  </g>
</svg>
